<mxfile host="Electron" agent="Mozilla/5.0 (Windows NT 10.0; Win64; x64) AppleWebKit/537.36 (KHTML, like Gecko) draw.io/24.7.8 Chrome/128.0.6613.36 Electron/32.0.1 Safari/537.36" version="24.7.8" pages="3">
  <diagram id="C5RBs43oDa-KdzZeNtuy" name="Page-1">
    <mxGraphModel dx="1213" dy="770" grid="1" gridSize="10" guides="1" tooltips="1" connect="1" arrows="1" fold="1" page="1" pageScale="1" pageWidth="2339" pageHeight="3300" math="0" shadow="0">
      <root>
        <mxCell id="WIyWlLk6GJQsqaUBKTNV-0" />
        <mxCell id="WIyWlLk6GJQsqaUBKTNV-1" parent="WIyWlLk6GJQsqaUBKTNV-0" />
        <mxCell id="kn_j7XCJbJrEArzHgRln-6" value="Product" style="swimlane;fontStyle=1;align=center;verticalAlign=top;childLayout=stackLayout;horizontal=1;startSize=26;horizontalStack=0;resizeParent=1;resizeParentMax=0;resizeLast=0;collapsible=1;marginBottom=0;whiteSpace=wrap;html=1;" parent="WIyWlLk6GJQsqaUBKTNV-1" vertex="1">
          <mxGeometry x="890" y="560" width="160" height="164" as="geometry">
            <mxRectangle x="1480" y="500" width="80" height="30" as="alternateBounds" />
          </mxGeometry>
        </mxCell>
        <mxCell id="kn_j7XCJbJrEArzHgRln-7" value="- Code:string&lt;div&gt;- Title:string&lt;/div&gt;&lt;div&gt;- Departure:string&lt;/div&gt;&lt;div&gt;- Destination:string&lt;/div&gt;&lt;div&gt;- Price:double&lt;/div&gt;&lt;div&gt;- TravelAgencyName:string&lt;/div&gt;" style="text;strokeColor=none;fillColor=none;align=left;verticalAlign=top;spacingLeft=4;spacingRight=4;overflow=hidden;rotatable=0;points=[[0,0.5],[1,0.5]];portConstraint=eastwest;whiteSpace=wrap;html=1;" parent="kn_j7XCJbJrEArzHgRln-6" vertex="1">
          <mxGeometry y="26" width="160" height="104" as="geometry" />
        </mxCell>
        <mxCell id="kn_j7XCJbJrEArzHgRln-8" value="" style="line;strokeWidth=1;fillColor=none;align=left;verticalAlign=middle;spacingTop=-1;spacingLeft=3;spacingRight=3;rotatable=0;labelPosition=right;points=[];portConstraint=eastwest;strokeColor=inherit;" parent="kn_j7XCJbJrEArzHgRln-6" vertex="1">
          <mxGeometry y="130" width="160" height="8" as="geometry" />
        </mxCell>
        <mxCell id="kn_j7XCJbJrEArzHgRln-9" value="+ DisplayProductInfo():void" style="text;strokeColor=none;fillColor=none;align=left;verticalAlign=top;spacingLeft=4;spacingRight=4;overflow=hidden;rotatable=0;points=[[0,0.5],[1,0.5]];portConstraint=eastwest;whiteSpace=wrap;html=1;" parent="kn_j7XCJbJrEArzHgRln-6" vertex="1">
          <mxGeometry y="138" width="160" height="26" as="geometry" />
        </mxCell>
        <mxCell id="kn_j7XCJbJrEArzHgRln-47" style="edgeStyle=orthogonalEdgeStyle;rounded=0;orthogonalLoop=1;jettySize=auto;html=1;exitX=0.5;exitY=0;exitDx=0;exitDy=0;" parent="WIyWlLk6GJQsqaUBKTNV-1" source="kn_j7XCJbJrEArzHgRln-20" edge="1">
          <mxGeometry relative="1" as="geometry">
            <mxPoint x="960" y="730" as="targetPoint" />
          </mxGeometry>
        </mxCell>
        <mxCell id="kn_j7XCJbJrEArzHgRln-20" value="DomesticTourism" style="swimlane;fontStyle=1;align=center;verticalAlign=top;childLayout=stackLayout;horizontal=1;startSize=26;horizontalStack=0;resizeParent=1;resizeParentMax=0;resizeLast=0;collapsible=1;marginBottom=0;whiteSpace=wrap;html=1;" parent="WIyWlLk6GJQsqaUBKTNV-1" vertex="1">
          <mxGeometry x="770" y="800" width="160" height="60" as="geometry">
            <mxRectangle x="1360" y="740" width="130" height="30" as="alternateBounds" />
          </mxGeometry>
        </mxCell>
        <mxCell id="kn_j7XCJbJrEArzHgRln-21" value="- TouristRoute:string" style="text;strokeColor=none;fillColor=none;align=left;verticalAlign=top;spacingLeft=4;spacingRight=4;overflow=hidden;rotatable=0;points=[[0,0.5],[1,0.5]];portConstraint=eastwest;whiteSpace=wrap;html=1;" parent="kn_j7XCJbJrEArzHgRln-20" vertex="1">
          <mxGeometry y="26" width="160" height="26" as="geometry" />
        </mxCell>
        <mxCell id="kn_j7XCJbJrEArzHgRln-22" value="" style="line;strokeWidth=1;fillColor=none;align=left;verticalAlign=middle;spacingTop=-1;spacingLeft=3;spacingRight=3;rotatable=0;labelPosition=right;points=[];portConstraint=eastwest;strokeColor=inherit;" parent="kn_j7XCJbJrEArzHgRln-20" vertex="1">
          <mxGeometry y="52" width="160" height="8" as="geometry" />
        </mxCell>
        <mxCell id="kn_j7XCJbJrEArzHgRln-35" style="edgeStyle=orthogonalEdgeStyle;rounded=0;orthogonalLoop=1;jettySize=auto;html=1;exitX=0.5;exitY=0;exitDx=0;exitDy=0;" parent="WIyWlLk6GJQsqaUBKTNV-1" source="kn_j7XCJbJrEArzHgRln-29" edge="1">
          <mxGeometry relative="1" as="geometry">
            <mxPoint x="960" y="730" as="targetPoint" />
          </mxGeometry>
        </mxCell>
        <mxCell id="kn_j7XCJbJrEArzHgRln-29" value="OutbondTourism" style="swimlane;fontStyle=1;align=center;verticalAlign=top;childLayout=stackLayout;horizontal=1;startSize=26;horizontalStack=0;resizeParent=1;resizeParentMax=0;resizeLast=0;collapsible=1;marginBottom=0;whiteSpace=wrap;html=1;" parent="WIyWlLk6GJQsqaUBKTNV-1" vertex="1">
          <mxGeometry x="970" y="800" width="160" height="86" as="geometry" />
        </mxCell>
        <mxCell id="kn_j7XCJbJrEArzHgRln-30" value="- TouristRoute:string" style="text;strokeColor=none;fillColor=none;align=left;verticalAlign=top;spacingLeft=4;spacingRight=4;overflow=hidden;rotatable=0;points=[[0,0.5],[1,0.5]];portConstraint=eastwest;whiteSpace=wrap;html=1;" parent="kn_j7XCJbJrEArzHgRln-29" vertex="1">
          <mxGeometry y="26" width="160" height="26" as="geometry" />
        </mxCell>
        <mxCell id="kn_j7XCJbJrEArzHgRln-52" value="- StayDays:int" style="text;strokeColor=none;fillColor=none;align=left;verticalAlign=top;spacingLeft=4;spacingRight=4;overflow=hidden;rotatable=0;points=[[0,0.5],[1,0.5]];portConstraint=eastwest;whiteSpace=wrap;html=1;" parent="kn_j7XCJbJrEArzHgRln-29" vertex="1">
          <mxGeometry y="52" width="160" height="26" as="geometry" />
        </mxCell>
        <mxCell id="kn_j7XCJbJrEArzHgRln-31" value="" style="line;strokeWidth=1;fillColor=none;align=left;verticalAlign=middle;spacingTop=-1;spacingLeft=3;spacingRight=3;rotatable=0;labelPosition=right;points=[];portConstraint=eastwest;strokeColor=inherit;" parent="kn_j7XCJbJrEArzHgRln-29" vertex="1">
          <mxGeometry y="78" width="160" height="8" as="geometry" />
        </mxCell>
        <mxCell id="kn_j7XCJbJrEArzHgRln-50" style="edgeStyle=orthogonalEdgeStyle;rounded=0;orthogonalLoop=1;jettySize=auto;html=1;exitX=0.5;exitY=0;exitDx=0;exitDy=0;" parent="WIyWlLk6GJQsqaUBKTNV-1" source="kn_j7XCJbJrEArzHgRln-36" edge="1">
          <mxGeometry relative="1" as="geometry">
            <mxPoint x="960" y="730" as="targetPoint" />
          </mxGeometry>
        </mxCell>
        <mxCell id="kn_j7XCJbJrEArzHgRln-36" value="CruiseTourism" style="swimlane;fontStyle=1;align=center;verticalAlign=top;childLayout=stackLayout;horizontal=1;startSize=26;horizontalStack=0;resizeParent=1;resizeParentMax=0;resizeLast=0;collapsible=1;marginBottom=0;whiteSpace=wrap;html=1;" parent="WIyWlLk6GJQsqaUBKTNV-1" vertex="1">
          <mxGeometry x="1190" y="800" width="160" height="112" as="geometry" />
        </mxCell>
        <mxCell id="kn_j7XCJbJrEArzHgRln-37" value="- TouristRoute:string" style="text;strokeColor=none;fillColor=none;align=left;verticalAlign=top;spacingLeft=4;spacingRight=4;overflow=hidden;rotatable=0;points=[[0,0.5],[1,0.5]];portConstraint=eastwest;whiteSpace=wrap;html=1;" parent="kn_j7XCJbJrEArzHgRln-36" vertex="1">
          <mxGeometry y="26" width="160" height="26" as="geometry" />
        </mxCell>
        <mxCell id="kn_j7XCJbJrEArzHgRln-54" value="-CruiseCompany:string" style="text;strokeColor=none;fillColor=none;align=left;verticalAlign=top;spacingLeft=4;spacingRight=4;overflow=hidden;rotatable=0;points=[[0,0.5],[1,0.5]];portConstraint=eastwest;whiteSpace=wrap;html=1;" parent="kn_j7XCJbJrEArzHgRln-36" vertex="1">
          <mxGeometry y="52" width="160" height="26" as="geometry" />
        </mxCell>
        <mxCell id="kn_j7XCJbJrEArzHgRln-53" value="- StayDays:int" style="text;strokeColor=none;fillColor=none;align=left;verticalAlign=top;spacingLeft=4;spacingRight=4;overflow=hidden;rotatable=0;points=[[0,0.5],[1,0.5]];portConstraint=eastwest;whiteSpace=wrap;html=1;" parent="kn_j7XCJbJrEArzHgRln-36" vertex="1">
          <mxGeometry y="78" width="160" height="26" as="geometry" />
        </mxCell>
        <mxCell id="kn_j7XCJbJrEArzHgRln-38" value="" style="line;strokeWidth=1;fillColor=none;align=left;verticalAlign=middle;spacingTop=-1;spacingLeft=3;spacingRight=3;rotatable=0;labelPosition=right;points=[];portConstraint=eastwest;strokeColor=inherit;" parent="kn_j7XCJbJrEArzHgRln-36" vertex="1">
          <mxGeometry y="104" width="160" height="8" as="geometry" />
        </mxCell>
        <mxCell id="kn_j7XCJbJrEArzHgRln-45" style="edgeStyle=orthogonalEdgeStyle;rounded=0;orthogonalLoop=1;jettySize=auto;html=1;exitX=0.5;exitY=0;exitDx=0;exitDy=0;" parent="WIyWlLk6GJQsqaUBKTNV-1" source="kn_j7XCJbJrEArzHgRln-40" edge="1">
          <mxGeometry relative="1" as="geometry">
            <mxPoint x="960" y="730" as="targetPoint" />
          </mxGeometry>
        </mxCell>
        <mxCell id="kn_j7XCJbJrEArzHgRln-40" value="PeripheralTourism" style="swimlane;fontStyle=1;align=center;verticalAlign=top;childLayout=stackLayout;horizontal=1;startSize=26;horizontalStack=0;resizeParent=1;resizeParentMax=0;resizeLast=0;collapsible=1;marginBottom=0;whiteSpace=wrap;html=1;" parent="WIyWlLk6GJQsqaUBKTNV-1" vertex="1">
          <mxGeometry x="520" y="800" width="220" height="86" as="geometry" />
        </mxCell>
        <mxCell id="kn_j7XCJbJrEArzHgRln-41" value="- TouristRoute:string" style="text;strokeColor=none;fillColor=none;align=left;verticalAlign=top;spacingLeft=4;spacingRight=4;overflow=hidden;rotatable=0;points=[[0,0.5],[1,0.5]];portConstraint=eastwest;whiteSpace=wrap;html=1;" parent="kn_j7XCJbJrEArzHgRln-40" vertex="1">
          <mxGeometry y="26" width="220" height="26" as="geometry" />
        </mxCell>
        <mxCell id="kn_j7XCJbJrEArzHgRln-51" value="-ProductFeatureDescription:string" style="text;strokeColor=none;fillColor=none;align=left;verticalAlign=top;spacingLeft=4;spacingRight=4;overflow=hidden;rotatable=0;points=[[0,0.5],[1,0.5]];portConstraint=eastwest;whiteSpace=wrap;html=1;" parent="kn_j7XCJbJrEArzHgRln-40" vertex="1">
          <mxGeometry y="52" width="220" height="26" as="geometry" />
        </mxCell>
        <mxCell id="kn_j7XCJbJrEArzHgRln-42" value="" style="line;strokeWidth=1;fillColor=none;align=left;verticalAlign=middle;spacingTop=-1;spacingLeft=3;spacingRight=3;rotatable=0;labelPosition=right;points=[];portConstraint=eastwest;strokeColor=inherit;" parent="kn_j7XCJbJrEArzHgRln-40" vertex="1">
          <mxGeometry y="78" width="220" height="8" as="geometry" />
        </mxCell>
        <mxCell id="kn_j7XCJbJrEArzHgRln-59" value="TouristRoute" style="swimlane;fontStyle=1;align=center;verticalAlign=top;childLayout=stackLayout;horizontal=1;startSize=26;horizontalStack=0;resizeParent=1;resizeParentMax=0;resizeLast=0;collapsible=1;marginBottom=0;whiteSpace=wrap;html=1;" parent="WIyWlLk6GJQsqaUBKTNV-1" vertex="1">
          <mxGeometry x="1530" y="550" width="160" height="112" as="geometry" />
        </mxCell>
        <mxCell id="kn_j7XCJbJrEArzHgRln-60" value="- Code:string" style="text;strokeColor=none;fillColor=none;align=left;verticalAlign=top;spacingLeft=4;spacingRight=4;overflow=hidden;rotatable=0;points=[[0,0.5],[1,0.5]];portConstraint=eastwest;whiteSpace=wrap;html=1;" parent="kn_j7XCJbJrEArzHgRln-59" vertex="1">
          <mxGeometry y="26" width="160" height="26" as="geometry" />
        </mxCell>
        <mxCell id="kn_j7XCJbJrEArzHgRln-63" value="- Name:string" style="text;strokeColor=none;fillColor=none;align=left;verticalAlign=top;spacingLeft=4;spacingRight=4;overflow=hidden;rotatable=0;points=[[0,0.5],[1,0.5]];portConstraint=eastwest;whiteSpace=wrap;html=1;" parent="kn_j7XCJbJrEArzHgRln-59" vertex="1">
          <mxGeometry y="52" width="160" height="26" as="geometry" />
        </mxCell>
        <mxCell id="kn_j7XCJbJrEArzHgRln-61" value="" style="line;strokeWidth=1;fillColor=none;align=left;verticalAlign=middle;spacingTop=-1;spacingLeft=3;spacingRight=3;rotatable=0;labelPosition=right;points=[];portConstraint=eastwest;strokeColor=inherit;" parent="kn_j7XCJbJrEArzHgRln-59" vertex="1">
          <mxGeometry y="78" width="160" height="8" as="geometry" />
        </mxCell>
        <mxCell id="kn_j7XCJbJrEArzHgRln-62" value="- DisplayRouteInfo（）:void" style="text;strokeColor=none;fillColor=none;align=left;verticalAlign=top;spacingLeft=4;spacingRight=4;overflow=hidden;rotatable=0;points=[[0,0.5],[1,0.5]];portConstraint=eastwest;whiteSpace=wrap;html=1;" parent="kn_j7XCJbJrEArzHgRln-59" vertex="1">
          <mxGeometry y="86" width="160" height="26" as="geometry" />
        </mxCell>
        <mxCell id="kn_j7XCJbJrEArzHgRln-66" value="ResponsiblePerson" style="swimlane;fontStyle=1;align=center;verticalAlign=top;childLayout=stackLayout;horizontal=1;startSize=26;horizontalStack=0;resizeParent=1;resizeParentMax=0;resizeLast=0;collapsible=1;marginBottom=0;whiteSpace=wrap;html=1;" parent="WIyWlLk6GJQsqaUBKTNV-1" vertex="1">
          <mxGeometry x="1540" y="761.31" width="160" height="164" as="geometry" />
        </mxCell>
        <mxCell id="kn_j7XCJbJrEArzHgRln-67" value="- ID:string" style="text;strokeColor=none;fillColor=none;align=left;verticalAlign=top;spacingLeft=4;spacingRight=4;overflow=hidden;rotatable=0;points=[[0,0.5],[1,0.5]];portConstraint=eastwest;whiteSpace=wrap;html=1;" parent="kn_j7XCJbJrEArzHgRln-66" vertex="1">
          <mxGeometry y="26" width="160" height="26" as="geometry" />
        </mxCell>
        <mxCell id="kn_j7XCJbJrEArzHgRln-70" value="- Name:String" style="text;strokeColor=none;fillColor=none;align=left;verticalAlign=top;spacingLeft=4;spacingRight=4;overflow=hidden;rotatable=0;points=[[0,0.5],[1,0.5]];portConstraint=eastwest;whiteSpace=wrap;html=1;" parent="kn_j7XCJbJrEArzHgRln-66" vertex="1">
          <mxGeometry y="52" width="160" height="26" as="geometry" />
        </mxCell>
        <mxCell id="kn_j7XCJbJrEArzHgRln-71" value="- Telephone:String" style="text;strokeColor=none;fillColor=none;align=left;verticalAlign=top;spacingLeft=4;spacingRight=4;overflow=hidden;rotatable=0;points=[[0,0.5],[1,0.5]];portConstraint=eastwest;whiteSpace=wrap;html=1;" parent="kn_j7XCJbJrEArzHgRln-66" vertex="1">
          <mxGeometry y="78" width="160" height="26" as="geometry" />
        </mxCell>
        <mxCell id="kn_j7XCJbJrEArzHgRln-72" value="- QQ:String" style="text;strokeColor=none;fillColor=none;align=left;verticalAlign=top;spacingLeft=4;spacingRight=4;overflow=hidden;rotatable=0;points=[[0,0.5],[1,0.5]];portConstraint=eastwest;whiteSpace=wrap;html=1;" parent="kn_j7XCJbJrEArzHgRln-66" vertex="1">
          <mxGeometry y="104" width="160" height="26" as="geometry" />
        </mxCell>
        <mxCell id="kn_j7XCJbJrEArzHgRln-73" value="- Email: String" style="text;strokeColor=none;fillColor=none;align=left;verticalAlign=top;spacingLeft=4;spacingRight=4;overflow=hidden;rotatable=0;points=[[0,0.5],[1,0.5]];portConstraint=eastwest;whiteSpace=wrap;html=1;" parent="kn_j7XCJbJrEArzHgRln-66" vertex="1">
          <mxGeometry y="130" width="160" height="26" as="geometry" />
        </mxCell>
        <mxCell id="kn_j7XCJbJrEArzHgRln-68" value="" style="line;strokeWidth=1;fillColor=none;align=left;verticalAlign=middle;spacingTop=-1;spacingLeft=3;spacingRight=3;rotatable=0;labelPosition=right;points=[];portConstraint=eastwest;strokeColor=inherit;" parent="kn_j7XCJbJrEArzHgRln-66" vertex="1">
          <mxGeometry y="156" width="160" height="8" as="geometry" />
        </mxCell>
        <mxCell id="kn_j7XCJbJrEArzHgRln-76" value="*&amp;nbsp; &amp;nbsp;-responsiblepeople" style="endArrow=block;endFill=1;html=1;edgeStyle=orthogonalEdgeStyle;align=left;verticalAlign=top;rounded=0;exitX=0.503;exitY=1.017;exitDx=0;exitDy=0;exitPerimeter=0;entryX=0.438;entryY=0.004;entryDx=0;entryDy=0;entryPerimeter=0;" parent="WIyWlLk6GJQsqaUBKTNV-1" source="kn_j7XCJbJrEArzHgRln-62" target="kn_j7XCJbJrEArzHgRln-66" edge="1">
          <mxGeometry x="0.3607" y="10" relative="1" as="geometry">
            <mxPoint x="1560" y="700" as="sourcePoint" />
            <mxPoint x="1720" y="700" as="targetPoint" />
            <mxPoint as="offset" />
          </mxGeometry>
        </mxCell>
        <mxCell id="kn_j7XCJbJrEArzHgRln-77" value="1" style="edgeLabel;resizable=0;html=1;align=left;verticalAlign=bottom;" parent="kn_j7XCJbJrEArzHgRln-76" connectable="0" vertex="1">
          <mxGeometry x="-1" relative="1" as="geometry" />
        </mxCell>
        <mxCell id="kn_j7XCJbJrEArzHgRln-78" value="1" style="text;align=center;fontStyle=0;verticalAlign=middle;spacingLeft=3;spacingRight=3;strokeColor=none;rotatable=0;points=[[0,0.5],[1,0.5]];portConstraint=eastwest;html=1;fontSize=10;" parent="WIyWlLk6GJQsqaUBKTNV-1" vertex="1">
          <mxGeometry x="1600" y="670" width="60" height="10" as="geometry" />
        </mxCell>
        <mxCell id="kn_j7XCJbJrEArzHgRln-79" value="TouristAttarction" style="swimlane;fontStyle=1;align=center;verticalAlign=top;childLayout=stackLayout;horizontal=1;startSize=26;horizontalStack=0;resizeParent=1;resizeParentMax=0;resizeLast=0;collapsible=1;marginBottom=0;whiteSpace=wrap;html=1;" parent="WIyWlLk6GJQsqaUBKTNV-1" vertex="1">
          <mxGeometry x="1890" y="761.31" width="160" height="112" as="geometry" />
        </mxCell>
        <mxCell id="kn_j7XCJbJrEArzHgRln-80" value="- name:String" style="text;strokeColor=none;fillColor=none;align=left;verticalAlign=top;spacingLeft=4;spacingRight=4;overflow=hidden;rotatable=0;points=[[0,0.5],[1,0.5]];portConstraint=eastwest;whiteSpace=wrap;html=1;" parent="kn_j7XCJbJrEArzHgRln-79" vertex="1">
          <mxGeometry y="26" width="160" height="26" as="geometry" />
        </mxCell>
        <mxCell id="kn_j7XCJbJrEArzHgRln-83" value="- type:String" style="text;strokeColor=none;fillColor=none;align=left;verticalAlign=top;spacingLeft=4;spacingRight=4;overflow=hidden;rotatable=0;points=[[0,0.5],[1,0.5]];portConstraint=eastwest;whiteSpace=wrap;html=1;" parent="kn_j7XCJbJrEArzHgRln-79" vertex="1">
          <mxGeometry y="52" width="160" height="26" as="geometry" />
        </mxCell>
        <mxCell id="kn_j7XCJbJrEArzHgRln-84" value="- Province:String" style="text;strokeColor=none;fillColor=none;align=left;verticalAlign=top;spacingLeft=4;spacingRight=4;overflow=hidden;rotatable=0;points=[[0,0.5],[1,0.5]];portConstraint=eastwest;whiteSpace=wrap;html=1;" parent="kn_j7XCJbJrEArzHgRln-79" vertex="1">
          <mxGeometry y="78" width="160" height="26" as="geometry" />
        </mxCell>
        <mxCell id="kn_j7XCJbJrEArzHgRln-81" value="" style="line;strokeWidth=1;fillColor=none;align=left;verticalAlign=middle;spacingTop=-1;spacingLeft=3;spacingRight=3;rotatable=0;labelPosition=right;points=[];portConstraint=eastwest;strokeColor=inherit;" parent="kn_j7XCJbJrEArzHgRln-79" vertex="1">
          <mxGeometry y="104" width="160" height="8" as="geometry" />
        </mxCell>
        <mxCell id="kn_j7XCJbJrEArzHgRln-85" value="*&amp;nbsp; &amp;nbsp;- attractions" style="endArrow=block;endFill=1;html=1;edgeStyle=orthogonalEdgeStyle;align=left;verticalAlign=top;rounded=0;exitX=0.498;exitY=1.068;exitDx=0;exitDy=0;exitPerimeter=0;entryX=0.5;entryY=0;entryDx=0;entryDy=0;" parent="WIyWlLk6GJQsqaUBKTNV-1" source="kn_j7XCJbJrEArzHgRln-62" target="kn_j7XCJbJrEArzHgRln-79" edge="1">
          <mxGeometry x="0.8632" y="10" relative="1" as="geometry">
            <mxPoint x="1610" y="660" as="sourcePoint" />
            <mxPoint x="1970" y="630" as="targetPoint" />
            <Array as="points">
              <mxPoint x="1610" y="710" />
              <mxPoint x="1970" y="710" />
            </Array>
            <mxPoint as="offset" />
          </mxGeometry>
        </mxCell>
        <mxCell id="kn_j7XCJbJrEArzHgRln-86" value="1" style="edgeLabel;resizable=0;html=1;align=left;verticalAlign=bottom;" parent="kn_j7XCJbJrEArzHgRln-85" connectable="0" vertex="1">
          <mxGeometry x="-1" relative="1" as="geometry" />
        </mxCell>
        <mxCell id="kn_j7XCJbJrEArzHgRln-93" value="System" style="swimlane;fontStyle=1;align=left;verticalAlign=top;childLayout=stackLayout;horizontal=1;startSize=26;horizontalStack=0;resizeParent=1;resizeParentMax=0;resizeLast=0;collapsible=1;marginBottom=0;whiteSpace=wrap;html=1;" parent="WIyWlLk6GJQsqaUBKTNV-1" vertex="1">
          <mxGeometry x="1240" y="110" width="420" height="226" as="geometry" />
        </mxCell>
        <mxCell id="kn_j7XCJbJrEArzHgRln-95" value="" style="line;strokeWidth=1;fillColor=none;align=left;verticalAlign=middle;spacingTop=-1;spacingLeft=3;spacingRight=3;rotatable=0;labelPosition=right;points=[];portConstraint=eastwest;strokeColor=inherit;" parent="kn_j7XCJbJrEArzHgRln-93" vertex="1">
          <mxGeometry y="26" width="420" height="8" as="geometry" />
        </mxCell>
        <mxCell id="kn_j7XCJbJrEArzHgRln-96" value="+ addProduct(product:Product)" style="text;strokeColor=none;fillColor=none;align=left;verticalAlign=top;spacingLeft=4;spacingRight=4;overflow=hidden;rotatable=0;points=[[0,0.5],[1,0.5]];portConstraint=eastwest;whiteSpace=wrap;html=1;" parent="kn_j7XCJbJrEArzHgRln-93" vertex="1">
          <mxGeometry y="34" width="420" height="26" as="geometry" />
        </mxCell>
        <mxCell id="kn_j7XCJbJrEArzHgRln-97" value="+addRoute(route:TouristRoute)" style="text;strokeColor=none;fillColor=none;align=left;verticalAlign=top;spacingLeft=4;spacingRight=4;overflow=hidden;rotatable=0;points=[[0,0.5],[1,0.5]];portConstraint=eastwest;whiteSpace=wrap;html=1;" parent="kn_j7XCJbJrEArzHgRln-93" vertex="1">
          <mxGeometry y="60" width="420" height="26" as="geometry" />
        </mxCell>
        <mxCell id="kn_j7XCJbJrEArzHgRln-99" value="+ displayRoutesCatalog()" style="text;strokeColor=none;fillColor=none;align=left;verticalAlign=top;spacingLeft=4;spacingRight=4;overflow=hidden;rotatable=0;points=[[0,0.5],[1,0.5]];portConstraint=eastwest;whiteSpace=wrap;html=1;" parent="kn_j7XCJbJrEArzHgRln-93" vertex="1">
          <mxGeometry y="86" width="420" height="26" as="geometry" />
        </mxCell>
        <mxCell id="kn_j7XCJbJrEArzHgRln-98" value="+displayProductsCatalog()" style="text;strokeColor=none;fillColor=none;align=left;verticalAlign=top;spacingLeft=4;spacingRight=4;overflow=hidden;rotatable=0;points=[[0,0.5],[1,0.5]];portConstraint=eastwest;whiteSpace=wrap;html=1;" parent="kn_j7XCJbJrEArzHgRln-93" vertex="1">
          <mxGeometry y="112" width="420" height="26" as="geometry" />
        </mxCell>
        <mxCell id="kn_j7XCJbJrEArzHgRln-100" value="+&amp;nbsp;lookupProduct(departure: String, destination: String): TourismProduct" style="text;strokeColor=none;fillColor=none;align=left;verticalAlign=top;spacingLeft=4;spacingRight=4;overflow=hidden;rotatable=0;points=[[0,0.5],[1,0.5]];portConstraint=eastwest;whiteSpace=wrap;html=1;" parent="kn_j7XCJbJrEArzHgRln-93" vertex="1">
          <mxGeometry y="138" width="420" height="32" as="geometry" />
        </mxCell>
        <mxCell id="kn_j7XCJbJrEArzHgRln-101" value="+&amp;nbsp;lookupRouteByAttraction(attractionName: String): TouristRoute" style="text;strokeColor=none;fillColor=none;align=left;verticalAlign=top;spacingLeft=4;spacingRight=4;overflow=hidden;rotatable=0;points=[[0,0.5],[1,0.5]];portConstraint=eastwest;whiteSpace=wrap;html=1;" parent="kn_j7XCJbJrEArzHgRln-93" vertex="1">
          <mxGeometry y="170" width="420" height="30" as="geometry" />
        </mxCell>
        <mxCell id="kn_j7XCJbJrEArzHgRln-102" value="+ lookupRouteByResponsiblePerson(personID: String): TouristRoute" style="text;strokeColor=none;fillColor=none;align=left;verticalAlign=top;spacingLeft=4;spacingRight=4;overflow=hidden;rotatable=0;points=[[0,0.5],[1,0.5]];portConstraint=eastwest;whiteSpace=wrap;html=1;" parent="kn_j7XCJbJrEArzHgRln-93" vertex="1">
          <mxGeometry y="200" width="420" height="26" as="geometry" />
        </mxCell>
        <mxCell id="kn_j7XCJbJrEArzHgRln-103" value="" style="endArrow=block;endFill=1;html=1;edgeStyle=orthogonalEdgeStyle;align=left;verticalAlign=top;rounded=0;entryX=0.5;entryY=0;entryDx=0;entryDy=0;exitX=0.502;exitY=1.163;exitDx=0;exitDy=0;exitPerimeter=0;" parent="WIyWlLk6GJQsqaUBKTNV-1" source="kn_j7XCJbJrEArzHgRln-102" target="kn_j7XCJbJrEArzHgRln-6" edge="1">
          <mxGeometry x="-0.9208" y="41" relative="1" as="geometry">
            <mxPoint x="1590" y="400" as="sourcePoint" />
            <mxPoint x="1350" y="440" as="targetPoint" />
            <Array as="points">
              <mxPoint x="1449" y="340" />
              <mxPoint x="1449" y="440" />
              <mxPoint x="970" y="440" />
            </Array>
            <mxPoint as="offset" />
          </mxGeometry>
        </mxCell>
        <mxCell id="kn_j7XCJbJrEArzHgRln-104" value="1" style="edgeLabel;resizable=0;html=1;align=left;verticalAlign=bottom;" parent="kn_j7XCJbJrEArzHgRln-103" connectable="0" vertex="1">
          <mxGeometry x="-1" relative="1" as="geometry" />
        </mxCell>
        <mxCell id="kn_j7XCJbJrEArzHgRln-105" value="* -products" style="endArrow=block;endFill=1;html=1;edgeStyle=orthogonalEdgeStyle;align=left;verticalAlign=top;rounded=0;entryX=0.5;entryY=0;entryDx=0;entryDy=0;exitX=0.497;exitY=1.107;exitDx=0;exitDy=0;exitPerimeter=0;" parent="WIyWlLk6GJQsqaUBKTNV-1" source="kn_j7XCJbJrEArzHgRln-102" target="kn_j7XCJbJrEArzHgRln-59" edge="1">
          <mxGeometry x="-0.4495" y="-477" relative="1" as="geometry">
            <mxPoint x="1190" y="440" as="sourcePoint" />
            <mxPoint x="1350" y="440" as="targetPoint" />
            <Array as="points">
              <mxPoint x="1450" y="440" />
              <mxPoint x="1610" y="440" />
            </Array>
            <mxPoint x="-470" y="-397" as="offset" />
          </mxGeometry>
        </mxCell>
        <mxCell id="kn_j7XCJbJrEArzHgRln-106" value="1" style="edgeLabel;resizable=0;html=1;align=left;verticalAlign=bottom;" parent="kn_j7XCJbJrEArzHgRln-105" connectable="0" vertex="1">
          <mxGeometry x="-1" relative="1" as="geometry" />
        </mxCell>
        <mxCell id="kn_j7XCJbJrEArzHgRln-107" value="* -routes" style="text;align=center;fontStyle=0;verticalAlign=middle;spacingLeft=3;spacingRight=3;strokeColor=none;rotatable=0;points=[[0,0.5],[1,0.5]];portConstraint=eastwest;html=1;fontSize=11;" parent="WIyWlLk6GJQsqaUBKTNV-1" vertex="1">
          <mxGeometry x="1610" y="520" width="80" height="26" as="geometry" />
        </mxCell>
        <mxCell id="kn_j7XCJbJrEArzHgRln-108" value="" style="endArrow=none;html=1;edgeStyle=orthogonalEdgeStyle;rounded=0;entryX=0;entryY=0.5;entryDx=0;entryDy=0;exitX=0.5;exitY=1;exitDx=0;exitDy=0;" parent="WIyWlLk6GJQsqaUBKTNV-1" source="kn_j7XCJbJrEArzHgRln-36" target="kn_j7XCJbJrEArzHgRln-63" edge="1">
          <mxGeometry relative="1" as="geometry">
            <mxPoint x="1140" y="600" as="sourcePoint" />
            <mxPoint x="1300" y="600" as="targetPoint" />
            <Array as="points">
              <mxPoint x="1270" y="1000" />
              <mxPoint x="1500" y="1000" />
              <mxPoint x="1500" y="615" />
            </Array>
          </mxGeometry>
        </mxCell>
        <mxCell id="kn_j7XCJbJrEArzHgRln-112" value="" style="endArrow=none;html=1;edgeStyle=orthogonalEdgeStyle;rounded=0;exitX=0.5;exitY=1;exitDx=0;exitDy=0;" parent="WIyWlLk6GJQsqaUBKTNV-1" source="kn_j7XCJbJrEArzHgRln-29" edge="1">
          <mxGeometry relative="1" as="geometry">
            <mxPoint x="1140" y="810" as="sourcePoint" />
            <mxPoint x="1270" y="1000" as="targetPoint" />
            <Array as="points">
              <mxPoint x="1050" y="1000" />
            </Array>
          </mxGeometry>
        </mxCell>
        <mxCell id="kn_j7XCJbJrEArzHgRln-113" value="parent" style="edgeLabel;resizable=0;html=1;align=left;verticalAlign=bottom;" parent="kn_j7XCJbJrEArzHgRln-112" connectable="0" vertex="1">
          <mxGeometry x="-1" relative="1" as="geometry" />
        </mxCell>
        <mxCell id="kn_j7XCJbJrEArzHgRln-115" value="* -routes" style="text;align=center;fontStyle=0;verticalAlign=middle;spacingLeft=3;spacingRight=3;strokeColor=none;rotatable=0;points=[[0,0.5],[1,0.5]];portConstraint=eastwest;html=1;fontSize=11;" parent="WIyWlLk6GJQsqaUBKTNV-1" vertex="1">
          <mxGeometry x="1430" y="610" width="80" height="26" as="geometry" />
        </mxCell>
        <mxCell id="kn_j7XCJbJrEArzHgRln-116" value="" style="endArrow=none;html=1;edgeStyle=orthogonalEdgeStyle;rounded=0;exitX=0.496;exitY=1.029;exitDx=0;exitDy=0;exitPerimeter=0;" parent="WIyWlLk6GJQsqaUBKTNV-1" source="kn_j7XCJbJrEArzHgRln-22" edge="1">
          <mxGeometry relative="1" as="geometry">
            <mxPoint x="790" y="810" as="sourcePoint" />
            <mxPoint x="1050" y="1000" as="targetPoint" />
            <Array as="points">
              <mxPoint x="849" y="1000" />
            </Array>
          </mxGeometry>
        </mxCell>
        <mxCell id="kn_j7XCJbJrEArzHgRln-117" value="parent" style="edgeLabel;resizable=0;html=1;align=left;verticalAlign=bottom;" parent="kn_j7XCJbJrEArzHgRln-116" connectable="0" vertex="1">
          <mxGeometry x="-1" relative="1" as="geometry" />
        </mxCell>
        <mxCell id="kn_j7XCJbJrEArzHgRln-118" value="1" style="edgeLabel;resizable=0;html=1;align=right;verticalAlign=bottom;" parent="kn_j7XCJbJrEArzHgRln-116" connectable="0" vertex="1">
          <mxGeometry x="1" relative="1" as="geometry">
            <mxPoint x="20" y="-90" as="offset" />
          </mxGeometry>
        </mxCell>
        <mxCell id="kn_j7XCJbJrEArzHgRln-119" value="" style="endArrow=none;html=1;edgeStyle=orthogonalEdgeStyle;rounded=0;exitX=0.5;exitY=1;exitDx=0;exitDy=0;" parent="WIyWlLk6GJQsqaUBKTNV-1" source="kn_j7XCJbJrEArzHgRln-40" edge="1">
          <mxGeometry relative="1" as="geometry">
            <mxPoint x="790" y="810" as="sourcePoint" />
            <mxPoint x="850" y="1000" as="targetPoint" />
            <Array as="points">
              <mxPoint x="630" y="1000" />
            </Array>
          </mxGeometry>
        </mxCell>
        <mxCell id="kn_j7XCJbJrEArzHgRln-120" value="1" style="edgeLabel;resizable=0;html=1;align=left;verticalAlign=bottom;" parent="kn_j7XCJbJrEArzHgRln-119" connectable="0" vertex="1">
          <mxGeometry x="-1" relative="1" as="geometry">
            <mxPoint x="10" y="24" as="offset" />
          </mxGeometry>
        </mxCell>
        <mxCell id="kn_j7XCJbJrEArzHgRln-121" value="1" style="edgeLabel;resizable=0;html=1;align=right;verticalAlign=bottom;" parent="kn_j7XCJbJrEArzHgRln-119" connectable="0" vertex="1">
          <mxGeometry x="1" relative="1" as="geometry">
            <mxPoint x="20" y="-110" as="offset" />
          </mxGeometry>
        </mxCell>
        <mxCell id="kn_j7XCJbJrEArzHgRln-122" value="1" style="text;strokeColor=none;fillColor=none;align=left;verticalAlign=top;spacingLeft=4;spacingRight=4;overflow=hidden;rotatable=0;points=[[0,0.5],[1,0.5]];portConstraint=eastwest;whiteSpace=wrap;html=1;" parent="WIyWlLk6GJQsqaUBKTNV-1" vertex="1">
          <mxGeometry x="1280" y="912" width="100" height="26" as="geometry" />
        </mxCell>
      </root>
    </mxGraphModel>
  </diagram>
  <diagram id="fY-r3YzKL78zP-LCiXv5" name="第 2 页">
    <mxGraphModel dx="1628" dy="1497" grid="0" gridSize="10" guides="1" tooltips="1" connect="1" arrows="1" fold="1" page="0" pageScale="1" pageWidth="1169" pageHeight="827" math="0" shadow="1">
      <root>
        <mxCell id="0" />
        <mxCell id="1" parent="0" />
        <mxCell id="4EB8Psn6O-BigjPQr9G0-3" value="UserManagement" style="swimlane;fontStyle=2;align=center;verticalAlign=top;childLayout=stackLayout;horizontal=1;startSize=26;horizontalStack=0;resizeParent=1;resizeLast=0;collapsible=1;marginBottom=0;rounded=0;shadow=0;strokeWidth=1;labelBackgroundColor=none;" parent="1" vertex="1">
          <mxGeometry x="615" y="594" width="245" height="372" as="geometry">
            <mxRectangle x="230" y="140" width="160" height="26" as="alternateBounds" />
          </mxGeometry>
        </mxCell>
        <mxCell id="4EB8Psn6O-BigjPQr9G0-4" value="-ID:String" style="text;align=left;verticalAlign=top;spacingLeft=4;spacingRight=4;overflow=hidden;rotatable=0;points=[[0,0.5],[1,0.5]];portConstraint=eastwest;labelBackgroundColor=none;" parent="4EB8Psn6O-BigjPQr9G0-3" vertex="1">
          <mxGeometry y="26" width="245" height="26" as="geometry" />
        </mxCell>
        <mxCell id="4EB8Psn6O-BigjPQr9G0-5" value="-name:String" style="text;align=left;verticalAlign=top;spacingLeft=4;spacingRight=4;overflow=hidden;rotatable=0;points=[[0,0.5],[1,0.5]];portConstraint=eastwest;rounded=0;shadow=0;html=0;labelBackgroundColor=none;" parent="4EB8Psn6O-BigjPQr9G0-3" vertex="1">
          <mxGeometry y="52" width="245" height="26" as="geometry" />
        </mxCell>
        <mxCell id="4EB8Psn6O-BigjPQr9G0-6" value="-phoneNumber:String" style="text;align=left;verticalAlign=top;spacingLeft=4;spacingRight=4;overflow=hidden;rotatable=0;points=[[0,0.5],[1,0.5]];portConstraint=eastwest;rounded=0;shadow=0;html=0;labelBackgroundColor=none;" parent="4EB8Psn6O-BigjPQr9G0-3" vertex="1">
          <mxGeometry y="78" width="245" height="26" as="geometry" />
        </mxCell>
        <mxCell id="4EB8Psn6O-BigjPQr9G0-66" value="-email:String" style="text;align=left;verticalAlign=top;spacingLeft=4;spacingRight=4;overflow=hidden;rotatable=0;points=[[0,0.5],[1,0.5]];portConstraint=eastwest;rounded=0;shadow=0;html=0;labelBackgroundColor=none;" parent="4EB8Psn6O-BigjPQr9G0-3" vertex="1">
          <mxGeometry y="104" width="245" height="26" as="geometry" />
        </mxCell>
        <mxCell id="4EB8Psn6O-BigjPQr9G0-7" value="" style="line;html=1;strokeWidth=1;align=left;verticalAlign=middle;spacingTop=-1;spacingLeft=3;spacingRight=3;rotatable=0;labelPosition=right;points=[];portConstraint=eastwest;labelBackgroundColor=none;" parent="4EB8Psn6O-BigjPQr9G0-3" vertex="1">
          <mxGeometry y="130" width="245" height="8" as="geometry" />
        </mxCell>
        <mxCell id="4EB8Psn6O-BigjPQr9G0-8" value="+setID(ID:String):void" style="text;align=left;verticalAlign=top;spacingLeft=4;spacingRight=4;overflow=hidden;rotatable=0;points=[[0,0.5],[1,0.5]];portConstraint=eastwest;labelBackgroundColor=none;" parent="4EB8Psn6O-BigjPQr9G0-3" vertex="1">
          <mxGeometry y="138" width="245" height="26" as="geometry" />
        </mxCell>
        <mxCell id="BxSPVIajZblq-_sVraYG-2" value="+getID():String" style="text;align=left;verticalAlign=top;spacingLeft=4;spacingRight=4;overflow=hidden;rotatable=0;points=[[0,0.5],[1,0.5]];portConstraint=eastwest;whiteSpace=wrap;html=1;labelBackgroundColor=none;" parent="4EB8Psn6O-BigjPQr9G0-3" vertex="1">
          <mxGeometry y="164" width="245" height="26" as="geometry" />
        </mxCell>
        <mxCell id="4EB8Psn6O-BigjPQr9G0-80" value="+getID():String" style="text;align=left;verticalAlign=top;spacingLeft=4;spacingRight=4;overflow=hidden;rotatable=0;points=[[0,0.5],[1,0.5]];portConstraint=eastwest;whiteSpace=wrap;html=1;labelBackgroundColor=none;" parent="4EB8Psn6O-BigjPQr9G0-3" vertex="1">
          <mxGeometry y="190" width="245" height="26" as="geometry" />
        </mxCell>
        <mxCell id="4EB8Psn6O-BigjPQr9G0-81" value="+getName():String" style="text;align=left;verticalAlign=top;spacingLeft=4;spacingRight=4;overflow=hidden;rotatable=0;points=[[0,0.5],[1,0.5]];portConstraint=eastwest;whiteSpace=wrap;html=1;labelBackgroundColor=none;" parent="4EB8Psn6O-BigjPQr9G0-3" vertex="1">
          <mxGeometry y="216" width="245" height="26" as="geometry" />
        </mxCell>
        <mxCell id="4EB8Psn6O-BigjPQr9G0-82" value="+setName(Name:String)" style="text;align=left;verticalAlign=top;spacingLeft=4;spacingRight=4;overflow=hidden;rotatable=0;points=[[0,0.5],[1,0.5]];portConstraint=eastwest;whiteSpace=wrap;html=1;labelBackgroundColor=none;" parent="4EB8Psn6O-BigjPQr9G0-3" vertex="1">
          <mxGeometry y="242" width="245" height="26" as="geometry" />
        </mxCell>
        <mxCell id="4EB8Psn6O-BigjPQr9G0-83" value="+getPhoneNumber():String" style="text;align=left;verticalAlign=top;spacingLeft=4;spacingRight=4;overflow=hidden;rotatable=0;points=[[0,0.5],[1,0.5]];portConstraint=eastwest;labelBackgroundColor=none;" parent="4EB8Psn6O-BigjPQr9G0-3" vertex="1">
          <mxGeometry y="268" width="245" height="26" as="geometry" />
        </mxCell>
        <mxCell id="4EB8Psn6O-BigjPQr9G0-85" value="+setPhoneNumber(phoneNumber:String)" style="text;align=left;verticalAlign=top;spacingLeft=4;spacingRight=4;overflow=hidden;rotatable=0;points=[[0,0.5],[1,0.5]];portConstraint=eastwest;labelBackgroundColor=none;" parent="4EB8Psn6O-BigjPQr9G0-3" vertex="1">
          <mxGeometry y="294" width="245" height="26" as="geometry" />
        </mxCell>
        <mxCell id="4EB8Psn6O-BigjPQr9G0-86" value="+getEmail():String" style="text;align=left;verticalAlign=top;spacingLeft=4;spacingRight=4;overflow=hidden;rotatable=0;points=[[0,0.5],[1,0.5]];portConstraint=eastwest;labelBackgroundColor=none;" parent="4EB8Psn6O-BigjPQr9G0-3" vertex="1">
          <mxGeometry y="320" width="245" height="26" as="geometry" />
        </mxCell>
        <mxCell id="4EB8Psn6O-BigjPQr9G0-84" value="+setEmail(Email:String)" style="text;align=left;verticalAlign=top;spacingLeft=4;spacingRight=4;overflow=hidden;rotatable=0;points=[[0,0.5],[1,0.5]];portConstraint=eastwest;labelBackgroundColor=none;" parent="4EB8Psn6O-BigjPQr9G0-3" vertex="1">
          <mxGeometry y="346" width="245" height="26" as="geometry" />
        </mxCell>
        <mxCell id="4EB8Psn6O-BigjPQr9G0-9" value="Student" style="swimlane;fontStyle=0;align=center;verticalAlign=top;childLayout=stackLayout;horizontal=1;startSize=26;horizontalStack=0;resizeParent=1;resizeLast=0;collapsible=1;marginBottom=0;rounded=0;shadow=0;strokeWidth=1;labelBackgroundColor=none;" parent="1" vertex="1">
          <mxGeometry x="320" y="1134" width="280" height="346" as="geometry">
            <mxRectangle x="130" y="380" width="160" height="26" as="alternateBounds" />
          </mxGeometry>
        </mxCell>
        <mxCell id="4EB8Psn6O-BigjPQr9G0-10" value="-studentNumber:String" style="text;align=left;verticalAlign=top;spacingLeft=4;spacingRight=4;overflow=hidden;rotatable=0;points=[[0,0.5],[1,0.5]];portConstraint=eastwest;labelBackgroundColor=none;" parent="4EB8Psn6O-BigjPQr9G0-9" vertex="1">
          <mxGeometry y="26" width="280" height="26" as="geometry" />
        </mxCell>
        <mxCell id="4EB8Psn6O-BigjPQr9G0-11" value="-gender:String" style="text;align=left;verticalAlign=top;spacingLeft=4;spacingRight=4;overflow=hidden;rotatable=0;points=[[0,0.5],[1,0.5]];portConstraint=eastwest;rounded=0;shadow=0;html=0;labelBackgroundColor=none;" parent="4EB8Psn6O-BigjPQr9G0-9" vertex="1">
          <mxGeometry y="52" width="280" height="26" as="geometry" />
        </mxCell>
        <mxCell id="4EB8Psn6O-BigjPQr9G0-68" value="-grade:int" style="text;align=left;verticalAlign=top;spacingLeft=4;spacingRight=4;overflow=hidden;rotatable=0;points=[[0,0.5],[1,0.5]];portConstraint=eastwest;whiteSpace=wrap;html=1;labelBackgroundColor=none;" parent="4EB8Psn6O-BigjPQr9G0-9" vertex="1">
          <mxGeometry y="78" width="280" height="26" as="geometry" />
        </mxCell>
        <mxCell id="4EB8Psn6O-BigjPQr9G0-69" value="-department:String" style="text;align=left;verticalAlign=top;spacingLeft=4;spacingRight=4;overflow=hidden;rotatable=0;points=[[0,0.5],[1,0.5]];portConstraint=eastwest;whiteSpace=wrap;html=1;labelBackgroundColor=none;" parent="4EB8Psn6O-BigjPQr9G0-9" vertex="1">
          <mxGeometry y="104" width="280" height="26" as="geometry" />
        </mxCell>
        <mxCell id="4EB8Psn6O-BigjPQr9G0-12" value="" style="line;html=1;strokeWidth=1;align=left;verticalAlign=middle;spacingTop=-1;spacingLeft=3;spacingRight=3;rotatable=0;labelPosition=right;points=[];portConstraint=eastwest;labelBackgroundColor=none;" parent="4EB8Psn6O-BigjPQr9G0-9" vertex="1">
          <mxGeometry y="130" width="280" height="8" as="geometry" />
        </mxCell>
        <mxCell id="4EB8Psn6O-BigjPQr9G0-13" value="+getStudentNumber():String" style="text;align=left;verticalAlign=top;spacingLeft=4;spacingRight=4;overflow=hidden;rotatable=0;points=[[0,0.5],[1,0.5]];portConstraint=eastwest;fontStyle=0;labelBackgroundColor=none;" parent="4EB8Psn6O-BigjPQr9G0-9" vertex="1">
          <mxGeometry y="138" width="280" height="26" as="geometry" />
        </mxCell>
        <mxCell id="4EB8Psn6O-BigjPQr9G0-14" value="+setStudentNumber(StudentNumber:String)" style="text;align=left;verticalAlign=top;spacingLeft=4;spacingRight=4;overflow=hidden;rotatable=0;points=[[0,0.5],[1,0.5]];portConstraint=eastwest;labelBackgroundColor=none;" parent="4EB8Psn6O-BigjPQr9G0-9" vertex="1">
          <mxGeometry y="164" width="280" height="26" as="geometry" />
        </mxCell>
        <mxCell id="4EB8Psn6O-BigjPQr9G0-87" value="+getGender():String" style="text;align=left;verticalAlign=top;spacingLeft=4;spacingRight=4;overflow=hidden;rotatable=0;points=[[0,0.5],[1,0.5]];portConstraint=eastwest;fontStyle=0;labelBackgroundColor=none;" parent="4EB8Psn6O-BigjPQr9G0-9" vertex="1">
          <mxGeometry y="190" width="280" height="26" as="geometry" />
        </mxCell>
        <mxCell id="4EB8Psn6O-BigjPQr9G0-88" value="+setGender(gender:String)" style="text;align=left;verticalAlign=top;spacingLeft=4;spacingRight=4;overflow=hidden;rotatable=0;points=[[0,0.5],[1,0.5]];portConstraint=eastwest;fontStyle=0;labelBackgroundColor=none;" parent="4EB8Psn6O-BigjPQr9G0-9" vertex="1">
          <mxGeometry y="216" width="280" height="26" as="geometry" />
        </mxCell>
        <mxCell id="4EB8Psn6O-BigjPQr9G0-89" value="+getGrade():String" style="text;align=left;verticalAlign=top;spacingLeft=4;spacingRight=4;overflow=hidden;rotatable=0;points=[[0,0.5],[1,0.5]];portConstraint=eastwest;fontStyle=0;labelBackgroundColor=none;" parent="4EB8Psn6O-BigjPQr9G0-9" vertex="1">
          <mxGeometry y="242" width="280" height="26" as="geometry" />
        </mxCell>
        <mxCell id="4EB8Psn6O-BigjPQr9G0-90" value="+setGrade(grade:String)" style="text;align=left;verticalAlign=top;spacingLeft=4;spacingRight=4;overflow=hidden;rotatable=0;points=[[0,0.5],[1,0.5]];portConstraint=eastwest;fontStyle=0;labelBackgroundColor=none;" parent="4EB8Psn6O-BigjPQr9G0-9" vertex="1">
          <mxGeometry y="268" width="280" height="26" as="geometry" />
        </mxCell>
        <mxCell id="4EB8Psn6O-BigjPQr9G0-91" value="+getDepartment():String" style="text;align=left;verticalAlign=top;spacingLeft=4;spacingRight=4;overflow=hidden;rotatable=0;points=[[0,0.5],[1,0.5]];portConstraint=eastwest;whiteSpace=wrap;html=1;labelBackgroundColor=none;" parent="4EB8Psn6O-BigjPQr9G0-9" vertex="1">
          <mxGeometry y="294" width="280" height="26" as="geometry" />
        </mxCell>
        <mxCell id="4EB8Psn6O-BigjPQr9G0-92" value="+setDepartment(department:String)" style="text;align=left;verticalAlign=top;spacingLeft=4;spacingRight=4;overflow=hidden;rotatable=0;points=[[0,0.5],[1,0.5]];portConstraint=eastwest;fontStyle=0;labelBackgroundColor=none;" parent="4EB8Psn6O-BigjPQr9G0-9" vertex="1">
          <mxGeometry y="320" width="280" height="26" as="geometry" />
        </mxCell>
        <mxCell id="4EB8Psn6O-BigjPQr9G0-15" value="Teacher" style="swimlane;fontStyle=0;align=center;verticalAlign=top;childLayout=stackLayout;horizontal=1;startSize=26;horizontalStack=0;resizeParent=1;resizeLast=0;collapsible=1;marginBottom=0;rounded=0;shadow=0;strokeWidth=1;labelBackgroundColor=none;" parent="1" vertex="1">
          <mxGeometry x="615" y="1134" width="245" height="190" as="geometry">
            <mxRectangle x="340" y="380" width="170" height="26" as="alternateBounds" />
          </mxGeometry>
        </mxCell>
        <mxCell id="4EB8Psn6O-BigjPQr9G0-16" value="-jobNumber:String" style="text;align=left;verticalAlign=top;spacingLeft=4;spacingRight=4;overflow=hidden;rotatable=0;points=[[0,0.5],[1,0.5]];portConstraint=eastwest;labelBackgroundColor=none;" parent="4EB8Psn6O-BigjPQr9G0-15" vertex="1">
          <mxGeometry y="26" width="245" height="26" as="geometry" />
        </mxCell>
        <mxCell id="4EB8Psn6O-BigjPQr9G0-70" value="-collegeName:String" style="text;align=left;verticalAlign=top;spacingLeft=4;spacingRight=4;overflow=hidden;rotatable=0;points=[[0,0.5],[1,0.5]];portConstraint=eastwest;whiteSpace=wrap;html=1;labelBackgroundColor=none;" parent="4EB8Psn6O-BigjPQr9G0-15" vertex="1">
          <mxGeometry y="52" width="245" height="26" as="geometry" />
        </mxCell>
        <mxCell id="4EB8Psn6O-BigjPQr9G0-17" value="" style="line;html=1;strokeWidth=1;align=left;verticalAlign=middle;spacingTop=-1;spacingLeft=3;spacingRight=3;rotatable=0;labelPosition=right;points=[];portConstraint=eastwest;labelBackgroundColor=none;" parent="4EB8Psn6O-BigjPQr9G0-15" vertex="1">
          <mxGeometry y="78" width="245" height="8" as="geometry" />
        </mxCell>
        <mxCell id="4EB8Psn6O-BigjPQr9G0-93" value="+getJobNumber():String" style="text;align=left;verticalAlign=top;spacingLeft=4;spacingRight=4;overflow=hidden;rotatable=0;points=[[0,0.5],[1,0.5]];portConstraint=eastwest;fontStyle=0;labelBackgroundColor=none;" parent="4EB8Psn6O-BigjPQr9G0-15" vertex="1">
          <mxGeometry y="86" width="245" height="26" as="geometry" />
        </mxCell>
        <mxCell id="4EB8Psn6O-BigjPQr9G0-94" value="+setJobNumber(jobNumber:String)" style="text;align=left;verticalAlign=top;spacingLeft=4;spacingRight=4;overflow=hidden;rotatable=0;points=[[0,0.5],[1,0.5]];portConstraint=eastwest;fontStyle=0;labelBackgroundColor=none;" parent="4EB8Psn6O-BigjPQr9G0-15" vertex="1">
          <mxGeometry y="112" width="245" height="26" as="geometry" />
        </mxCell>
        <mxCell id="4EB8Psn6O-BigjPQr9G0-95" value="+getCollegeName():String" style="text;align=left;verticalAlign=top;spacingLeft=4;spacingRight=4;overflow=hidden;rotatable=0;points=[[0,0.5],[1,0.5]];portConstraint=eastwest;fontStyle=0;labelBackgroundColor=none;" parent="4EB8Psn6O-BigjPQr9G0-15" vertex="1">
          <mxGeometry y="138" width="245" height="26" as="geometry" />
        </mxCell>
        <mxCell id="4EB8Psn6O-BigjPQr9G0-96" value="+setCollegeName(collegeName:String)" style="text;align=left;verticalAlign=top;spacingLeft=4;spacingRight=4;overflow=hidden;rotatable=0;points=[[0,0.5],[1,0.5]];portConstraint=eastwest;fontStyle=0;labelBackgroundColor=none;" parent="4EB8Psn6O-BigjPQr9G0-15" vertex="1">
          <mxGeometry y="164" width="245" height="26" as="geometry" />
        </mxCell>
        <mxCell id="4EB8Psn6O-BigjPQr9G0-18" value="ActivityManagement" style="swimlane;fontStyle=0;align=center;verticalAlign=top;childLayout=stackLayout;horizontal=1;startSize=26;horizontalStack=0;resizeParent=1;resizeLast=0;collapsible=1;marginBottom=0;rounded=0;shadow=0;strokeWidth=1;labelBackgroundColor=none;" parent="1" vertex="1">
          <mxGeometry x="1620" y="530" width="460" height="658" as="geometry">
            <mxRectangle x="550" y="140" width="160" height="26" as="alternateBounds" />
          </mxGeometry>
        </mxCell>
        <mxCell id="4EB8Psn6O-BigjPQr9G0-19" value="-ID:String" style="text;align=left;verticalAlign=top;spacingLeft=4;spacingRight=4;overflow=hidden;rotatable=0;points=[[0,0.5],[1,0.5]];portConstraint=eastwest;labelBackgroundColor=none;" parent="4EB8Psn6O-BigjPQr9G0-18" vertex="1">
          <mxGeometry y="26" width="460" height="26" as="geometry" />
        </mxCell>
        <mxCell id="4EB8Psn6O-BigjPQr9G0-20" value="-name:String" style="text;align=left;verticalAlign=top;spacingLeft=4;spacingRight=4;overflow=hidden;rotatable=0;points=[[0,0.5],[1,0.5]];portConstraint=eastwest;rounded=0;shadow=0;html=0;labelBackgroundColor=none;" parent="4EB8Psn6O-BigjPQr9G0-18" vertex="1">
          <mxGeometry y="52" width="460" height="26" as="geometry" />
        </mxCell>
        <mxCell id="4EB8Psn6O-BigjPQr9G0-21" value="-startTime:Date" style="text;align=left;verticalAlign=top;spacingLeft=4;spacingRight=4;overflow=hidden;rotatable=0;points=[[0,0.5],[1,0.5]];portConstraint=eastwest;rounded=0;shadow=0;html=0;labelBackgroundColor=none;" parent="4EB8Psn6O-BigjPQr9G0-18" vertex="1">
          <mxGeometry y="78" width="460" height="26" as="geometry" />
        </mxCell>
        <mxCell id="4EB8Psn6O-BigjPQr9G0-22" value="-endTime:Date" style="text;align=left;verticalAlign=top;spacingLeft=4;spacingRight=4;overflow=hidden;rotatable=0;points=[[0,0.5],[1,0.5]];portConstraint=eastwest;rounded=0;shadow=0;html=0;labelBackgroundColor=none;" parent="4EB8Psn6O-BigjPQr9G0-18" vertex="1">
          <mxGeometry y="104" width="460" height="26" as="geometry" />
        </mxCell>
        <mxCell id="4EB8Psn6O-BigjPQr9G0-23" value="-Description:String" style="text;align=left;verticalAlign=top;spacingLeft=4;spacingRight=4;overflow=hidden;rotatable=0;points=[[0,0.5],[1,0.5]];portConstraint=eastwest;rounded=0;shadow=0;html=0;labelBackgroundColor=none;" parent="4EB8Psn6O-BigjPQr9G0-18" vertex="1">
          <mxGeometry y="130" width="460" height="26" as="geometry" />
        </mxCell>
        <mxCell id="4EB8Psn6O-BigjPQr9G0-71" value="-site:String" style="text;align=left;verticalAlign=top;spacingLeft=4;spacingRight=4;overflow=hidden;rotatable=0;points=[[0,0.5],[1,0.5]];portConstraint=eastwest;whiteSpace=wrap;html=1;labelBackgroundColor=none;" parent="4EB8Psn6O-BigjPQr9G0-18" vertex="1">
          <mxGeometry y="156" width="460" height="26" as="geometry" />
        </mxCell>
        <mxCell id="4EB8Psn6O-BigjPQr9G0-24" value="" style="line;html=1;strokeWidth=1;align=left;verticalAlign=middle;spacingTop=-1;spacingLeft=3;spacingRight=3;rotatable=0;labelPosition=right;points=[];portConstraint=eastwest;labelBackgroundColor=none;" parent="4EB8Psn6O-BigjPQr9G0-18" vertex="1">
          <mxGeometry y="182" width="460" height="8" as="geometry" />
        </mxCell>
        <mxCell id="4EB8Psn6O-BigjPQr9G0-102" value="+getID(): String" style="text;align=left;verticalAlign=top;spacingLeft=4;spacingRight=4;overflow=hidden;rotatable=0;points=[[0,0.5],[1,0.5]];portConstraint=eastwest;rounded=0;shadow=0;html=0;labelBackgroundColor=none;" parent="4EB8Psn6O-BigjPQr9G0-18" vertex="1">
          <mxGeometry y="190" width="460" height="26" as="geometry" />
        </mxCell>
        <mxCell id="4EB8Psn6O-BigjPQr9G0-104" value="+getName(): String" style="text;align=left;verticalAlign=top;spacingLeft=4;spacingRight=4;overflow=hidden;rotatable=0;points=[[0,0.5],[1,0.5]];portConstraint=eastwest;rounded=0;shadow=0;html=0;labelBackgroundColor=none;" parent="4EB8Psn6O-BigjPQr9G0-18" vertex="1">
          <mxGeometry y="216" width="460" height="26" as="geometry" />
        </mxCell>
        <mxCell id="4EB8Psn6O-BigjPQr9G0-105" value="+getStartTime(): Date" style="text;align=left;verticalAlign=top;spacingLeft=4;spacingRight=4;overflow=hidden;rotatable=0;points=[[0,0.5],[1,0.5]];portConstraint=eastwest;rounded=0;shadow=0;html=0;labelBackgroundColor=none;" parent="4EB8Psn6O-BigjPQr9G0-18" vertex="1">
          <mxGeometry y="242" width="460" height="26" as="geometry" />
        </mxCell>
        <mxCell id="4EB8Psn6O-BigjPQr9G0-106" value="+getEndTime(): Date" style="text;align=left;verticalAlign=top;spacingLeft=4;spacingRight=4;overflow=hidden;rotatable=0;points=[[0,0.5],[1,0.5]];portConstraint=eastwest;rounded=0;shadow=0;html=0;labelBackgroundColor=none;" parent="4EB8Psn6O-BigjPQr9G0-18" vertex="1">
          <mxGeometry y="268" width="460" height="26" as="geometry" />
        </mxCell>
        <mxCell id="4EB8Psn6O-BigjPQr9G0-114" value="+getDescription(): String" style="text;align=left;verticalAlign=top;spacingLeft=4;spacingRight=4;overflow=hidden;rotatable=0;points=[[0,0.5],[1,0.5]];portConstraint=eastwest;rounded=0;shadow=0;html=0;labelBackgroundColor=none;" parent="4EB8Psn6O-BigjPQr9G0-18" vertex="1">
          <mxGeometry y="294" width="460" height="26" as="geometry" />
        </mxCell>
        <mxCell id="4EB8Psn6O-BigjPQr9G0-111" value="+getSite(): String" style="text;align=left;verticalAlign=top;spacingLeft=4;spacingRight=4;overflow=hidden;rotatable=0;points=[[0,0.5],[1,0.5]];portConstraint=eastwest;rounded=0;shadow=0;html=0;labelBackgroundColor=none;" parent="4EB8Psn6O-BigjPQr9G0-18" vertex="1">
          <mxGeometry y="320" width="460" height="26" as="geometry" />
        </mxCell>
        <mxCell id="4EB8Psn6O-BigjPQr9G0-113" value="+setID(ID:String)" style="text;align=left;verticalAlign=top;spacingLeft=4;spacingRight=4;overflow=hidden;rotatable=0;points=[[0,0.5],[1,0.5]];portConstraint=eastwest;rounded=0;shadow=0;html=0;labelBackgroundColor=none;" parent="4EB8Psn6O-BigjPQr9G0-18" vertex="1">
          <mxGeometry y="346" width="460" height="26" as="geometry" />
        </mxCell>
        <mxCell id="4EB8Psn6O-BigjPQr9G0-110" value="+setName(Name:String)" style="text;align=left;verticalAlign=top;spacingLeft=4;spacingRight=4;overflow=hidden;rotatable=0;points=[[0,0.5],[1,0.5]];portConstraint=eastwest;rounded=0;shadow=0;html=0;labelBackgroundColor=none;" parent="4EB8Psn6O-BigjPQr9G0-18" vertex="1">
          <mxGeometry y="372" width="460" height="26" as="geometry" />
        </mxCell>
        <mxCell id="4EB8Psn6O-BigjPQr9G0-112" value="+setStartTime(startTime:Date)" style="text;align=left;verticalAlign=top;spacingLeft=4;spacingRight=4;overflow=hidden;rotatable=0;points=[[0,0.5],[1,0.5]];portConstraint=eastwest;rounded=0;shadow=0;html=0;labelBackgroundColor=none;" parent="4EB8Psn6O-BigjPQr9G0-18" vertex="1">
          <mxGeometry y="398" width="460" height="26" as="geometry" />
        </mxCell>
        <mxCell id="4EB8Psn6O-BigjPQr9G0-109" value="+setEndTime(endTime:Date)" style="text;align=left;verticalAlign=top;spacingLeft=4;spacingRight=4;overflow=hidden;rotatable=0;points=[[0,0.5],[1,0.5]];portConstraint=eastwest;rounded=0;shadow=0;html=0;labelBackgroundColor=none;" parent="4EB8Psn6O-BigjPQr9G0-18" vertex="1">
          <mxGeometry y="424" width="460" height="26" as="geometry" />
        </mxCell>
        <mxCell id="4EB8Psn6O-BigjPQr9G0-107" value="+setDescription(description:String)" style="text;align=left;verticalAlign=top;spacingLeft=4;spacingRight=4;overflow=hidden;rotatable=0;points=[[0,0.5],[1,0.5]];portConstraint=eastwest;rounded=0;shadow=0;html=0;labelBackgroundColor=none;" parent="4EB8Psn6O-BigjPQr9G0-18" vertex="1">
          <mxGeometry y="450" width="460" height="26" as="geometry" />
        </mxCell>
        <mxCell id="4EB8Psn6O-BigjPQr9G0-108" value="+setSite(site:String)" style="text;align=left;verticalAlign=top;spacingLeft=4;spacingRight=4;overflow=hidden;rotatable=0;points=[[0,0.5],[1,0.5]];portConstraint=eastwest;rounded=0;shadow=0;html=0;labelBackgroundColor=none;" parent="4EB8Psn6O-BigjPQr9G0-18" vertex="1">
          <mxGeometry y="476" width="460" height="26" as="geometry" />
        </mxCell>
        <mxCell id="RiG3D5k4U8Nx224Txmzv-10" value="+addTeam(team:Team)" style="text;strokeColor=none;fillColor=none;align=left;verticalAlign=top;spacingLeft=4;spacingRight=4;overflow=hidden;rotatable=0;points=[[0,0.5],[1,0.5]];portConstraint=eastwest;whiteSpace=wrap;html=1;" vertex="1" parent="4EB8Psn6O-BigjPQr9G0-18">
          <mxGeometry y="502" width="460" height="26" as="geometry" />
        </mxCell>
        <mxCell id="RiG3D5k4U8Nx224Txmzv-11" value="+removeTeam(team:Team)" style="text;strokeColor=none;fillColor=none;align=left;verticalAlign=top;spacingLeft=4;spacingRight=4;overflow=hidden;rotatable=0;points=[[0,0.5],[1,0.5]];portConstraint=eastwest;whiteSpace=wrap;html=1;" vertex="1" parent="4EB8Psn6O-BigjPQr9G0-18">
          <mxGeometry y="528" width="460" height="26" as="geometry" />
        </mxCell>
        <mxCell id="RiG3D5k4U8Nx224Txmzv-13" value="+addTeacher(teacher:Teacher)" style="text;strokeColor=none;fillColor=none;align=left;verticalAlign=top;spacingLeft=4;spacingRight=4;overflow=hidden;rotatable=0;points=[[0,0.5],[1,0.5]];portConstraint=eastwest;whiteSpace=wrap;html=1;" vertex="1" parent="4EB8Psn6O-BigjPQr9G0-18">
          <mxGeometry y="554" width="460" height="26" as="geometry" />
        </mxCell>
        <mxCell id="RiG3D5k4U8Nx224Txmzv-14" value="+removeTeacher(teacher:Teacher)" style="text;strokeColor=none;fillColor=none;align=left;verticalAlign=top;spacingLeft=4;spacingRight=4;overflow=hidden;rotatable=0;points=[[0,0.5],[1,0.5]];portConstraint=eastwest;whiteSpace=wrap;html=1;" vertex="1" parent="4EB8Psn6O-BigjPQr9G0-18">
          <mxGeometry y="580" width="460" height="26" as="geometry" />
        </mxCell>
        <mxCell id="RiG3D5k4U8Nx224Txmzv-15" value="+addOrganizer(organizer:Organizer)" style="text;strokeColor=none;fillColor=none;align=left;verticalAlign=top;spacingLeft=4;spacingRight=4;overflow=hidden;rotatable=0;points=[[0,0.5],[1,0.5]];portConstraint=eastwest;whiteSpace=wrap;html=1;" vertex="1" parent="4EB8Psn6O-BigjPQr9G0-18">
          <mxGeometry y="606" width="460" height="26" as="geometry" />
        </mxCell>
        <mxCell id="RiG3D5k4U8Nx224Txmzv-16" value="+removeOrganizer(organizer:Organizer)" style="text;strokeColor=none;fillColor=none;align=left;verticalAlign=top;spacingLeft=4;spacingRight=4;overflow=hidden;rotatable=0;points=[[0,0.5],[1,0.5]];portConstraint=eastwest;whiteSpace=wrap;html=1;" vertex="1" parent="4EB8Psn6O-BigjPQr9G0-18">
          <mxGeometry y="632" width="460" height="26" as="geometry" />
        </mxCell>
        <mxCell id="4EB8Psn6O-BigjPQr9G0-27" value="ActivityManagementSystem" style="swimlane;fontStyle=1;align=center;verticalAlign=top;childLayout=stackLayout;horizontal=1;startSize=26;horizontalStack=0;resizeParent=1;resizeParentMax=0;resizeLast=0;collapsible=1;marginBottom=0;whiteSpace=wrap;html=1;labelBackgroundColor=none;" parent="1" vertex="1">
          <mxGeometry x="1077" y="-47" width="259" height="268" as="geometry" />
        </mxCell>
        <mxCell id="4EB8Psn6O-BigjPQr9G0-28" value="" style="line;strokeWidth=1;align=left;verticalAlign=middle;spacingTop=-1;spacingLeft=3;spacingRight=3;rotatable=0;labelPosition=right;points=[];portConstraint=eastwest;labelBackgroundColor=none;" parent="4EB8Psn6O-BigjPQr9G0-27" vertex="1">
          <mxGeometry y="26" width="259" height="8" as="geometry" />
        </mxCell>
        <mxCell id="RiG3D5k4U8Nx224Txmzv-1" value="+showUser:List&amp;lt;User&amp;gt;" style="text;strokeColor=none;fillColor=none;align=left;verticalAlign=top;spacingLeft=4;spacingRight=4;overflow=hidden;rotatable=0;points=[[0,0.5],[1,0.5]];portConstraint=eastwest;whiteSpace=wrap;html=1;" vertex="1" parent="4EB8Psn6O-BigjPQr9G0-27">
          <mxGeometry y="34" width="259" height="26" as="geometry" />
        </mxCell>
        <mxCell id="RiG3D5k4U8Nx224Txmzv-2" value="+showActivity:&amp;lt;Activity&amp;gt;" style="text;strokeColor=none;fillColor=none;align=left;verticalAlign=top;spacingLeft=4;spacingRight=4;overflow=hidden;rotatable=0;points=[[0,0.5],[1,0.5]];portConstraint=eastwest;whiteSpace=wrap;html=1;" vertex="1" parent="4EB8Psn6O-BigjPQr9G0-27">
          <mxGeometry y="60" width="259" height="26" as="geometry" />
        </mxCell>
        <mxCell id="RiG3D5k4U8Nx224Txmzv-3" value="+addUser(user:User)" style="text;strokeColor=none;fillColor=none;align=left;verticalAlign=top;spacingLeft=4;spacingRight=4;overflow=hidden;rotatable=0;points=[[0,0.5],[1,0.5]];portConstraint=eastwest;whiteSpace=wrap;html=1;" vertex="1" parent="4EB8Psn6O-BigjPQr9G0-27">
          <mxGeometry y="86" width="259" height="26" as="geometry" />
        </mxCell>
        <mxCell id="RiG3D5k4U8Nx224Txmzv-4" value="+removeUser(user:User)" style="text;strokeColor=none;fillColor=none;align=left;verticalAlign=top;spacingLeft=4;spacingRight=4;overflow=hidden;rotatable=0;points=[[0,0.5],[1,0.5]];portConstraint=eastwest;whiteSpace=wrap;html=1;" vertex="1" parent="4EB8Psn6O-BigjPQr9G0-27">
          <mxGeometry y="112" width="259" height="26" as="geometry" />
        </mxCell>
        <mxCell id="RiG3D5k4U8Nx224Txmzv-5" value="+addActivity(activity:Activity)" style="text;strokeColor=none;fillColor=none;align=left;verticalAlign=top;spacingLeft=4;spacingRight=4;overflow=hidden;rotatable=0;points=[[0,0.5],[1,0.5]];portConstraint=eastwest;whiteSpace=wrap;html=1;" vertex="1" parent="4EB8Psn6O-BigjPQr9G0-27">
          <mxGeometry y="138" width="259" height="26" as="geometry" />
        </mxCell>
        <mxCell id="RiG3D5k4U8Nx224Txmzv-6" value="+removeActivity(activity:Activity)" style="text;strokeColor=none;fillColor=none;align=left;verticalAlign=top;spacingLeft=4;spacingRight=4;overflow=hidden;rotatable=0;points=[[0,0.5],[1,0.5]];portConstraint=eastwest;whiteSpace=wrap;html=1;" vertex="1" parent="4EB8Psn6O-BigjPQr9G0-27">
          <mxGeometry y="164" width="259" height="26" as="geometry" />
        </mxCell>
        <mxCell id="RiG3D5k4U8Nx224Txmzv-7" value="+searchUser(user:User)" style="text;strokeColor=none;fillColor=none;align=left;verticalAlign=top;spacingLeft=4;spacingRight=4;overflow=hidden;rotatable=0;points=[[0,0.5],[1,0.5]];portConstraint=eastwest;whiteSpace=wrap;html=1;" vertex="1" parent="4EB8Psn6O-BigjPQr9G0-27">
          <mxGeometry y="190" width="259" height="26" as="geometry" />
        </mxCell>
        <mxCell id="RiG3D5k4U8Nx224Txmzv-8" value="+searchActivity(activity:Activity)" style="text;strokeColor=none;fillColor=none;align=left;verticalAlign=top;spacingLeft=4;spacingRight=4;overflow=hidden;rotatable=0;points=[[0,0.5],[1,0.5]];portConstraint=eastwest;whiteSpace=wrap;html=1;" vertex="1" parent="4EB8Psn6O-BigjPQr9G0-27">
          <mxGeometry y="216" width="259" height="26" as="geometry" />
        </mxCell>
        <mxCell id="RiG3D5k4U8Nx224Txmzv-9" value="+getActivity(activity:Activity):List&amp;lt;Activity&amp;gt;" style="text;strokeColor=none;fillColor=none;align=left;verticalAlign=top;spacingLeft=4;spacingRight=4;overflow=hidden;rotatable=0;points=[[0,0.5],[1,0.5]];portConstraint=eastwest;whiteSpace=wrap;html=1;" vertex="1" parent="4EB8Psn6O-BigjPQr9G0-27">
          <mxGeometry y="242" width="259" height="26" as="geometry" />
        </mxCell>
        <mxCell id="RiG3D5k4U8Nx224Txmzv-27" style="edgeStyle=orthogonalEdgeStyle;rounded=0;orthogonalLoop=1;jettySize=auto;html=1;exitX=1;exitY=0.5;exitDx=0;exitDy=0;entryX=0;entryY=0.5;entryDx=0;entryDy=0;" edge="1" parent="1" source="RiG3D5k4U8Nx224Txmzv-28" target="4EB8Psn6O-BigjPQr9G0-111">
          <mxGeometry relative="1" as="geometry" />
        </mxCell>
        <mxCell id="4EB8Psn6O-BigjPQr9G0-30" value="&lt;span style=&quot;font-weight: normal;&quot;&gt;Organizer&lt;/span&gt;" style="swimlane;fontStyle=1;align=center;verticalAlign=top;childLayout=stackLayout;horizontal=1;startSize=26;horizontalStack=0;resizeParent=1;resizeParentMax=0;resizeLast=0;collapsible=1;marginBottom=0;whiteSpace=wrap;html=1;labelBackgroundColor=none;" parent="1" vertex="1">
          <mxGeometry x="870" y="1134" width="200" height="112" as="geometry" />
        </mxCell>
        <mxCell id="4EB8Psn6O-BigjPQr9G0-98" value="-department:String" style="text;align=left;verticalAlign=top;spacingLeft=4;spacingRight=4;overflow=hidden;rotatable=0;points=[[0,0.5],[1,0.5]];portConstraint=eastwest;fontStyle=0;labelBackgroundColor=none;" parent="4EB8Psn6O-BigjPQr9G0-30" vertex="1">
          <mxGeometry y="26" width="200" height="26" as="geometry" />
        </mxCell>
        <mxCell id="4EB8Psn6O-BigjPQr9G0-32" value="" style="line;strokeWidth=1;align=left;verticalAlign=middle;spacingTop=-1;spacingLeft=3;spacingRight=3;rotatable=0;labelPosition=right;points=[];portConstraint=eastwest;labelBackgroundColor=none;" parent="4EB8Psn6O-BigjPQr9G0-30" vertex="1">
          <mxGeometry y="52" width="200" height="8" as="geometry" />
        </mxCell>
        <mxCell id="4EB8Psn6O-BigjPQr9G0-33" value="+getDepartment():String" style="text;align=left;verticalAlign=top;spacingLeft=4;spacingRight=4;overflow=hidden;rotatable=0;points=[[0,0.5],[1,0.5]];portConstraint=eastwest;whiteSpace=wrap;html=1;labelBackgroundColor=none;" parent="4EB8Psn6O-BigjPQr9G0-30" vertex="1">
          <mxGeometry y="60" width="200" height="26" as="geometry" />
        </mxCell>
        <mxCell id="4EB8Psn6O-BigjPQr9G0-100" value="+setDepartment(department:String）" style="text;align=left;verticalAlign=top;spacingLeft=4;spacingRight=4;overflow=hidden;rotatable=0;points=[[0,0.5],[1,0.5]];portConstraint=eastwest;whiteSpace=wrap;html=1;labelBackgroundColor=none;" parent="4EB8Psn6O-BigjPQr9G0-30" vertex="1">
          <mxGeometry y="86" width="200" height="26" as="geometry" />
        </mxCell>
        <mxCell id="4EB8Psn6O-BigjPQr9G0-35" style="edgeStyle=none;curved=1;rounded=0;orthogonalLoop=1;jettySize=auto;html=1;entryX=0.5;entryY=1;entryDx=0;entryDy=0;fontSize=12;startSize=8;endSize=8;labelBackgroundColor=none;fontColor=default;" parent="1" source="4EB8Psn6O-BigjPQr9G0-3" target="4EB8Psn6O-BigjPQr9G0-3" edge="1">
          <mxGeometry relative="1" as="geometry" />
        </mxCell>
        <mxCell id="4EB8Psn6O-BigjPQr9G0-37" value="" style="endArrow=block;endSize=16;endFill=0;html=1;rounded=0;exitX=0.5;exitY=0;exitDx=0;exitDy=0;labelBackgroundColor=none;fontColor=default;entryX=0.495;entryY=1.071;entryDx=0;entryDy=0;entryPerimeter=0;" parent="1" source="4EB8Psn6O-BigjPQr9G0-15" target="4EB8Psn6O-BigjPQr9G0-84" edge="1">
          <mxGeometry width="160" relative="1" as="geometry">
            <mxPoint x="770" y="840" as="sourcePoint" />
            <mxPoint x="694" y="940" as="targetPoint" />
            <Array as="points" />
          </mxGeometry>
        </mxCell>
        <mxCell id="4EB8Psn6O-BigjPQr9G0-38" value="" style="endArrow=none;html=1;edgeStyle=orthogonalEdgeStyle;rounded=0;exitX=0.5;exitY=0;exitDx=0;exitDy=0;labelBackgroundColor=none;fontColor=default;" parent="1" source="4EB8Psn6O-BigjPQr9G0-9" edge="1">
          <mxGeometry relative="1" as="geometry">
            <mxPoint x="770" y="1084" as="sourcePoint" />
            <mxPoint x="700" y="1074" as="targetPoint" />
            <Array as="points">
              <mxPoint x="460" y="1074" />
            </Array>
          </mxGeometry>
        </mxCell>
        <mxCell id="4EB8Psn6O-BigjPQr9G0-44" value="" style="endArrow=none;html=1;edgeStyle=orthogonalEdgeStyle;rounded=0;entryX=0.5;entryY=0;entryDx=0;entryDy=0;labelBackgroundColor=none;fontColor=default;" parent="1" target="4EB8Psn6O-BigjPQr9G0-30" edge="1">
          <mxGeometry relative="1" as="geometry">
            <mxPoint x="690" y="1074" as="sourcePoint" />
            <mxPoint x="930" y="1084" as="targetPoint" />
          </mxGeometry>
        </mxCell>
        <mxCell id="4EB8Psn6O-BigjPQr9G0-47" value="LiteraryAndArtisticActivities" style="swimlane;fontStyle=1;align=center;verticalAlign=top;childLayout=stackLayout;horizontal=1;startSize=26;horizontalStack=0;resizeParent=1;resizeParentMax=0;resizeLast=0;collapsible=1;marginBottom=0;whiteSpace=wrap;html=1;labelBackgroundColor=none;" parent="1" vertex="1">
          <mxGeometry x="1570" y="1269.98" width="190" height="110" as="geometry">
            <mxRectangle x="1410" y="940" width="210" height="30" as="alternateBounds" />
          </mxGeometry>
        </mxCell>
        <mxCell id="4EB8Psn6O-BigjPQr9G0-48" value="-type:String" style="text;align=left;verticalAlign=top;spacingLeft=4;spacingRight=4;overflow=hidden;rotatable=0;points=[[0,0.5],[1,0.5]];portConstraint=eastwest;whiteSpace=wrap;html=1;labelBackgroundColor=none;" parent="4EB8Psn6O-BigjPQr9G0-47" vertex="1">
          <mxGeometry y="26" width="190" height="26" as="geometry" />
        </mxCell>
        <mxCell id="4EB8Psn6O-BigjPQr9G0-49" value="" style="line;strokeWidth=1;align=left;verticalAlign=middle;spacingTop=-1;spacingLeft=3;spacingRight=3;rotatable=0;labelPosition=right;points=[];portConstraint=eastwest;labelBackgroundColor=none;" parent="4EB8Psn6O-BigjPQr9G0-47" vertex="1">
          <mxGeometry y="52" width="190" height="8" as="geometry" />
        </mxCell>
        <mxCell id="4EB8Psn6O-BigjPQr9G0-50" value="+getType():String" style="text;align=left;verticalAlign=top;spacingLeft=4;spacingRight=4;overflow=hidden;rotatable=0;points=[[0,0.5],[1,0.5]];portConstraint=eastwest;whiteSpace=wrap;html=1;labelBackgroundColor=none;" parent="4EB8Psn6O-BigjPQr9G0-47" vertex="1">
          <mxGeometry y="60" width="190" height="26" as="geometry" />
        </mxCell>
        <mxCell id="4EB8Psn6O-BigjPQr9G0-116" value="&lt;span style=&quot;color: rgb(57, 60, 86); font-family: Helvetica; font-size: 12px; font-style: normal; font-variant-ligatures: normal; font-variant-caps: normal; font-weight: 400; letter-spacing: normal; orphans: 2; text-align: left; text-indent: 0px; text-transform: none; widows: 2; word-spacing: 0px; -webkit-text-stroke-width: 0px; white-space: normal; background-color: rgb(251, 251, 251); text-decoration-thickness: initial; text-decoration-style: initial; text-decoration-color: initial; display: inline !important; float: none;&quot;&gt;+setType(type:String)&lt;/span&gt;" style="text;whiteSpace=wrap;html=1;labelBackgroundColor=none;" parent="4EB8Psn6O-BigjPQr9G0-47" vertex="1">
          <mxGeometry y="86" width="190" height="24" as="geometry" />
        </mxCell>
        <mxCell id="4EB8Psn6O-BigjPQr9G0-51" value="LectureActivities" style="swimlane;fontStyle=1;align=center;verticalAlign=top;childLayout=stackLayout;horizontal=1;startSize=26;horizontalStack=0;resizeParent=1;resizeParentMax=0;resizeLast=0;collapsible=1;marginBottom=0;whiteSpace=wrap;html=1;labelBackgroundColor=none;" parent="1" vertex="1">
          <mxGeometry x="1780" y="1269.98" width="170" height="110" as="geometry" />
        </mxCell>
        <mxCell id="4EB8Psn6O-BigjPQr9G0-52" value="-speakers:String" style="text;align=left;verticalAlign=top;spacingLeft=4;spacingRight=4;overflow=hidden;rotatable=0;points=[[0,0.5],[1,0.5]];portConstraint=eastwest;whiteSpace=wrap;html=1;labelBackgroundColor=none;" parent="4EB8Psn6O-BigjPQr9G0-51" vertex="1">
          <mxGeometry y="26" width="170" height="26" as="geometry" />
        </mxCell>
        <mxCell id="4EB8Psn6O-BigjPQr9G0-53" value="" style="line;strokeWidth=1;align=left;verticalAlign=middle;spacingTop=-1;spacingLeft=3;spacingRight=3;rotatable=0;labelPosition=right;points=[];portConstraint=eastwest;labelBackgroundColor=none;" parent="4EB8Psn6O-BigjPQr9G0-51" vertex="1">
          <mxGeometry y="52" width="170" height="8" as="geometry" />
        </mxCell>
        <mxCell id="4EB8Psn6O-BigjPQr9G0-54" value="+getSpeakers():String" style="text;align=left;verticalAlign=top;spacingLeft=4;spacingRight=4;overflow=hidden;rotatable=0;points=[[0,0.5],[1,0.5]];portConstraint=eastwest;whiteSpace=wrap;html=1;labelBackgroundColor=none;" parent="4EB8Psn6O-BigjPQr9G0-51" vertex="1">
          <mxGeometry y="60" width="170" height="26" as="geometry" />
        </mxCell>
        <mxCell id="4EB8Psn6O-BigjPQr9G0-117" value="&lt;span style=&quot;color: rgb(57, 60, 86); font-family: Helvetica; font-size: 12px; font-style: normal; font-variant-ligatures: normal; font-variant-caps: normal; font-weight: 400; letter-spacing: normal; orphans: 2; text-align: left; text-indent: 0px; text-transform: none; widows: 2; word-spacing: 0px; -webkit-text-stroke-width: 0px; white-space: normal; background-color: rgb(251, 251, 251); text-decoration-thickness: initial; text-decoration-style: initial; text-decoration-color: initial; display: inline !important; float: none;&quot;&gt;+setSpeakers(speakers:String)&lt;/span&gt;" style="text;whiteSpace=wrap;html=1;labelBackgroundColor=none;" parent="4EB8Psn6O-BigjPQr9G0-51" vertex="1">
          <mxGeometry y="86" width="170" height="24" as="geometry" />
        </mxCell>
        <mxCell id="4EB8Psn6O-BigjPQr9G0-55" value="PartyDayActivities" style="swimlane;fontStyle=1;align=center;verticalAlign=top;childLayout=stackLayout;horizontal=1;startSize=26;horizontalStack=0;resizeParent=1;resizeParentMax=0;resizeLast=0;collapsible=1;marginBottom=0;whiteSpace=wrap;html=1;labelBackgroundColor=none;" parent="1" vertex="1">
          <mxGeometry x="1969" y="1269.98" width="291" height="190" as="geometry" />
        </mxCell>
        <mxCell id="4EB8Psn6O-BigjPQr9G0-56" value="-theme:String" style="text;align=left;verticalAlign=top;spacingLeft=4;spacingRight=4;overflow=hidden;rotatable=0;points=[[0,0.5],[1,0.5]];portConstraint=eastwest;whiteSpace=wrap;html=1;labelBackgroundColor=none;" parent="4EB8Psn6O-BigjPQr9G0-55" vertex="1">
          <mxGeometry y="26" width="291" height="26" as="geometry" />
        </mxCell>
        <mxCell id="4EB8Psn6O-BigjPQr9G0-73" value="-activityClassfication:String" style="text;align=left;verticalAlign=top;spacingLeft=4;spacingRight=4;overflow=hidden;rotatable=0;points=[[0,0.5],[1,0.5]];portConstraint=eastwest;whiteSpace=wrap;html=1;labelBackgroundColor=none;" parent="4EB8Psn6O-BigjPQr9G0-55" vertex="1">
          <mxGeometry y="52" width="291" height="26" as="geometry" />
        </mxCell>
        <mxCell id="4EB8Psn6O-BigjPQr9G0-57" value="" style="line;strokeWidth=1;align=left;verticalAlign=middle;spacingTop=-1;spacingLeft=3;spacingRight=3;rotatable=0;labelPosition=right;points=[];portConstraint=eastwest;labelBackgroundColor=none;" parent="4EB8Psn6O-BigjPQr9G0-55" vertex="1">
          <mxGeometry y="78" width="291" height="8" as="geometry" />
        </mxCell>
        <mxCell id="4EB8Psn6O-BigjPQr9G0-58" value="+getTheme():String" style="text;align=left;verticalAlign=top;spacingLeft=4;spacingRight=4;overflow=hidden;rotatable=0;points=[[0,0.5],[1,0.5]];portConstraint=eastwest;whiteSpace=wrap;html=1;labelBackgroundColor=none;" parent="4EB8Psn6O-BigjPQr9G0-55" vertex="1">
          <mxGeometry y="86" width="291" height="26" as="geometry" />
        </mxCell>
        <mxCell id="4EB8Psn6O-BigjPQr9G0-119" value="+setTheme(theme:String)" style="text;align=left;verticalAlign=top;spacingLeft=4;spacingRight=4;overflow=hidden;rotatable=0;points=[[0,0.5],[1,0.5]];portConstraint=eastwest;whiteSpace=wrap;html=1;labelBackgroundColor=none;" parent="4EB8Psn6O-BigjPQr9G0-55" vertex="1">
          <mxGeometry y="112" width="291" height="26" as="geometry" />
        </mxCell>
        <mxCell id="4EB8Psn6O-BigjPQr9G0-120" value="+getActivityClassfication():String" style="text;align=left;verticalAlign=top;spacingLeft=4;spacingRight=4;overflow=hidden;rotatable=0;points=[[0,0.5],[1,0.5]];portConstraint=eastwest;whiteSpace=wrap;html=1;labelBackgroundColor=none;" parent="4EB8Psn6O-BigjPQr9G0-55" vertex="1">
          <mxGeometry y="138" width="291" height="26" as="geometry" />
        </mxCell>
        <mxCell id="4EB8Psn6O-BigjPQr9G0-121" value="+setActivityClassfication(activityClassfication:String)" style="text;align=left;verticalAlign=top;spacingLeft=4;spacingRight=4;overflow=hidden;rotatable=0;points=[[0,0.5],[1,0.5]];portConstraint=eastwest;whiteSpace=wrap;html=1;labelBackgroundColor=none;" parent="4EB8Psn6O-BigjPQr9G0-55" vertex="1">
          <mxGeometry y="164" width="291" height="26" as="geometry" />
        </mxCell>
        <mxCell id="4EB8Psn6O-BigjPQr9G0-59" value="" style="endArrow=block;endSize=16;endFill=0;html=1;rounded=0;exitX=0.5;exitY=0;exitDx=0;exitDy=0;labelBackgroundColor=none;fontColor=default;entryX=0.536;entryY=0.934;entryDx=0;entryDy=0;entryPerimeter=0;" parent="1" source="4EB8Psn6O-BigjPQr9G0-51" target="RiG3D5k4U8Nx224Txmzv-16" edge="1">
          <mxGeometry width="160" relative="1" as="geometry">
            <mxPoint x="1855" y="1299.98" as="sourcePoint" />
            <mxPoint x="1865" y="1193" as="targetPoint" />
            <Array as="points" />
          </mxGeometry>
        </mxCell>
        <mxCell id="4EB8Psn6O-BigjPQr9G0-60" value="" style="endArrow=none;html=1;edgeStyle=orthogonalEdgeStyle;rounded=0;labelBackgroundColor=none;fontColor=default;" parent="1" edge="1">
          <mxGeometry relative="1" as="geometry">
            <mxPoint x="1673" y="1269.98" as="sourcePoint" />
            <mxPoint x="1853" y="1239.96" as="targetPoint" />
            <Array as="points">
              <mxPoint x="1673" y="1239.96" />
            </Array>
          </mxGeometry>
        </mxCell>
        <mxCell id="4EB8Psn6O-BigjPQr9G0-61" value="" style="endArrow=none;html=1;edgeStyle=orthogonalEdgeStyle;rounded=0;labelBackgroundColor=none;fontColor=default;" parent="1" edge="1">
          <mxGeometry relative="1" as="geometry">
            <mxPoint x="1850" y="1240" as="sourcePoint" />
            <mxPoint x="2116" y="1266" as="targetPoint" />
            <Array as="points">
              <mxPoint x="1850" y="1240" />
              <mxPoint x="2115" y="1240" />
            </Array>
          </mxGeometry>
        </mxCell>
        <mxCell id="RiG3D5k4U8Nx224Txmzv-36" style="edgeStyle=orthogonalEdgeStyle;rounded=0;orthogonalLoop=1;jettySize=auto;html=1;exitX=0.5;exitY=0;exitDx=0;exitDy=0;entryX=0;entryY=0.5;entryDx=0;entryDy=0;" edge="1" parent="1" source="4EB8Psn6O-BigjPQr9G0-62" target="4EB8Psn6O-BigjPQr9G0-109">
          <mxGeometry relative="1" as="geometry">
            <Array as="points">
              <mxPoint x="1236" y="1427" />
              <mxPoint x="1474" y="1427" />
              <mxPoint x="1474" y="967" />
            </Array>
          </mxGeometry>
        </mxCell>
        <mxCell id="4EB8Psn6O-BigjPQr9G0-62" value="Team" style="swimlane;fontStyle=1;align=center;verticalAlign=top;childLayout=stackLayout;horizontal=1;startSize=26;horizontalStack=0;resizeParent=1;resizeParentMax=0;resizeLast=0;collapsible=1;marginBottom=0;whiteSpace=wrap;html=1;labelBackgroundColor=none;" parent="1" vertex="1">
          <mxGeometry x="1126" y="1480" width="220" height="294" as="geometry" />
        </mxCell>
        <mxCell id="4EB8Psn6O-BigjPQr9G0-63" value="-ID:String" style="text;align=left;verticalAlign=top;spacingLeft=4;spacingRight=4;overflow=hidden;rotatable=0;points=[[0,0.5],[1,0.5]];portConstraint=eastwest;whiteSpace=wrap;html=1;labelBackgroundColor=none;" parent="4EB8Psn6O-BigjPQr9G0-62" vertex="1">
          <mxGeometry y="26" width="220" height="26" as="geometry" />
        </mxCell>
        <mxCell id="4EB8Psn6O-BigjPQr9G0-74" value="-teamName:String" style="text;align=left;verticalAlign=top;spacingLeft=4;spacingRight=4;overflow=hidden;rotatable=0;points=[[0,0.5],[1,0.5]];portConstraint=eastwest;whiteSpace=wrap;html=1;labelBackgroundColor=none;" parent="4EB8Psn6O-BigjPQr9G0-62" vertex="1">
          <mxGeometry y="52" width="220" height="26" as="geometry" />
        </mxCell>
        <mxCell id="4EB8Psn6O-BigjPQr9G0-79" value="-teamCollege:String" style="text;align=left;verticalAlign=top;spacingLeft=4;spacingRight=4;overflow=hidden;rotatable=0;points=[[0,0.5],[1,0.5]];portConstraint=eastwest;whiteSpace=wrap;html=1;labelBackgroundColor=none;" parent="4EB8Psn6O-BigjPQr9G0-62" vertex="1">
          <mxGeometry y="78" width="220" height="26" as="geometry" />
        </mxCell>
        <mxCell id="4EB8Psn6O-BigjPQr9G0-64" value="" style="line;strokeWidth=1;align=left;verticalAlign=middle;spacingTop=-1;spacingLeft=3;spacingRight=3;rotatable=0;labelPosition=right;points=[];portConstraint=eastwest;labelBackgroundColor=none;" parent="4EB8Psn6O-BigjPQr9G0-62" vertex="1">
          <mxGeometry y="104" width="220" height="8" as="geometry" />
        </mxCell>
        <mxCell id="4EB8Psn6O-BigjPQr9G0-65" value="+getID():String" style="text;align=left;verticalAlign=top;spacingLeft=4;spacingRight=4;overflow=hidden;rotatable=0;points=[[0,0.5],[1,0.5]];portConstraint=eastwest;whiteSpace=wrap;html=1;labelBackgroundColor=none;" parent="4EB8Psn6O-BigjPQr9G0-62" vertex="1">
          <mxGeometry y="112" width="220" height="26" as="geometry" />
        </mxCell>
        <mxCell id="4EB8Psn6O-BigjPQr9G0-122" value="+setID(ID:String)" style="text;align=left;verticalAlign=top;spacingLeft=4;spacingRight=4;overflow=hidden;rotatable=0;points=[[0,0.5],[1,0.5]];portConstraint=eastwest;whiteSpace=wrap;html=1;labelBackgroundColor=none;" parent="4EB8Psn6O-BigjPQr9G0-62" vertex="1">
          <mxGeometry y="138" width="220" height="26" as="geometry" />
        </mxCell>
        <mxCell id="4EB8Psn6O-BigjPQr9G0-124" value="+getTeamName():String" style="text;align=left;verticalAlign=top;spacingLeft=4;spacingRight=4;overflow=hidden;rotatable=0;points=[[0,0.5],[1,0.5]];portConstraint=eastwest;whiteSpace=wrap;html=1;labelBackgroundColor=none;" parent="4EB8Psn6O-BigjPQr9G0-62" vertex="1">
          <mxGeometry y="164" width="220" height="26" as="geometry" />
        </mxCell>
        <mxCell id="4EB8Psn6O-BigjPQr9G0-125" value="+setTeamName(teamName:String)" style="text;align=left;verticalAlign=top;spacingLeft=4;spacingRight=4;overflow=hidden;rotatable=0;points=[[0,0.5],[1,0.5]];portConstraint=eastwest;whiteSpace=wrap;html=1;labelBackgroundColor=none;" parent="4EB8Psn6O-BigjPQr9G0-62" vertex="1">
          <mxGeometry y="190" width="220" height="26" as="geometry" />
        </mxCell>
        <mxCell id="4EB8Psn6O-BigjPQr9G0-126" value="+getTeamCollege():String" style="text;align=left;verticalAlign=top;spacingLeft=4;spacingRight=4;overflow=hidden;rotatable=0;points=[[0,0.5],[1,0.5]];portConstraint=eastwest;whiteSpace=wrap;html=1;labelBackgroundColor=none;" parent="4EB8Psn6O-BigjPQr9G0-62" vertex="1">
          <mxGeometry y="216" width="220" height="26" as="geometry" />
        </mxCell>
        <mxCell id="4EB8Psn6O-BigjPQr9G0-127" value="+setTeamCollege(teamCollege:String)" style="text;align=left;verticalAlign=top;spacingLeft=4;spacingRight=4;overflow=hidden;rotatable=0;points=[[0,0.5],[1,0.5]];portConstraint=eastwest;whiteSpace=wrap;html=1;labelBackgroundColor=none;" parent="4EB8Psn6O-BigjPQr9G0-62" vertex="1">
          <mxGeometry y="242" width="220" height="26" as="geometry" />
        </mxCell>
        <mxCell id="RiG3D5k4U8Nx224Txmzv-17" value="+getNumberConnect():int" style="text;strokeColor=none;fillColor=none;align=left;verticalAlign=top;spacingLeft=4;spacingRight=4;overflow=hidden;rotatable=0;points=[[0,0.5],[1,0.5]];portConstraint=eastwest;whiteSpace=wrap;html=1;" vertex="1" parent="4EB8Psn6O-BigjPQr9G0-62">
          <mxGeometry y="268" width="220" height="26" as="geometry" />
        </mxCell>
        <mxCell id="RiG3D5k4U8Nx224Txmzv-18" value="" style="endArrow=open;endFill=1;endSize=12;html=1;rounded=0;exitX=0.493;exitY=0.808;exitDx=0;exitDy=0;exitPerimeter=0;entryX=0.5;entryY=0;entryDx=0;entryDy=0;edgeStyle=orthogonalEdgeStyle;" edge="1" parent="1" source="RiG3D5k4U8Nx224Txmzv-9" target="4EB8Psn6O-BigjPQr9G0-3">
          <mxGeometry width="160" relative="1" as="geometry">
            <mxPoint x="1143" y="786" as="sourcePoint" />
            <mxPoint x="1303" y="786" as="targetPoint" />
            <Array as="points">
              <mxPoint x="1206" y="392" />
              <mxPoint x="738" y="392" />
            </Array>
          </mxGeometry>
        </mxCell>
        <mxCell id="RiG3D5k4U8Nx224Txmzv-19" value="" style="endArrow=open;endFill=1;endSize=12;html=1;rounded=0;entryX=0.5;entryY=0;entryDx=0;entryDy=0;edgeStyle=elbowEdgeStyle;elbow=vertical;" edge="1" parent="1" target="4EB8Psn6O-BigjPQr9G0-18">
          <mxGeometry width="160" relative="1" as="geometry">
            <mxPoint x="1207" y="393" as="sourcePoint" />
            <mxPoint x="1367" y="393" as="targetPoint" />
            <Array as="points">
              <mxPoint x="1537" y="393" />
            </Array>
          </mxGeometry>
        </mxCell>
        <mxCell id="RiG3D5k4U8Nx224Txmzv-21" value="1" style="text;align=center;fontStyle=1;verticalAlign=middle;spacingLeft=3;spacingRight=3;strokeColor=none;rotatable=0;points=[[0,0.5],[1,0.5]];portConstraint=eastwest;html=1;" vertex="1" parent="1">
          <mxGeometry x="1194" y="229" width="80" height="26" as="geometry" />
        </mxCell>
        <mxCell id="RiG3D5k4U8Nx224Txmzv-25" value="* -users" style="text;align=center;fontStyle=0;verticalAlign=middle;spacingLeft=3;spacingRight=3;strokeColor=none;rotatable=0;points=[[0,0.5],[1,0.5]];portConstraint=eastwest;html=1;" vertex="1" parent="1">
          <mxGeometry x="740" y="564" width="80" height="26" as="geometry" />
        </mxCell>
        <mxCell id="RiG3D5k4U8Nx224Txmzv-26" value="* -activities" style="text;align=center;fontStyle=0;verticalAlign=middle;spacingLeft=3;spacingRight=3;strokeColor=none;rotatable=0;points=[[0,0.5],[1,0.5]];portConstraint=eastwest;html=1;" vertex="1" parent="1">
          <mxGeometry x="1854" y="500" width="80" height="26" as="geometry" />
        </mxCell>
        <mxCell id="RiG3D5k4U8Nx224Txmzv-28" value="1..* -organizers" style="text;align=center;fontStyle=0;verticalAlign=middle;spacingLeft=3;spacingRight=3;strokeColor=none;rotatable=0;points=[[0,0.5],[1,0.5]];portConstraint=eastwest;html=1;" vertex="1" parent="1">
          <mxGeometry x="1073" y="1177" width="80" height="26" as="geometry" />
        </mxCell>
        <mxCell id="RiG3D5k4U8Nx224Txmzv-30" value="* -activities" style="text;align=center;fontStyle=0;verticalAlign=middle;spacingLeft=3;spacingRight=3;strokeColor=none;rotatable=0;points=[[0,0.5],[1,0.5]];portConstraint=eastwest;html=1;" vertex="1" parent="1">
          <mxGeometry x="1537" y="872" width="80" height="26" as="geometry" />
        </mxCell>
        <mxCell id="RiG3D5k4U8Nx224Txmzv-32" value="" style="endArrow=none;html=1;edgeStyle=orthogonalEdgeStyle;rounded=0;exitX=0.467;exitY=1.03;exitDx=0;exitDy=0;exitPerimeter=0;" edge="1" parent="1" source="4EB8Psn6O-BigjPQr9G0-96">
          <mxGeometry relative="1" as="geometry">
            <mxPoint x="847" y="1066" as="sourcePoint" />
            <mxPoint x="1386" y="1191" as="targetPoint" />
            <Array as="points">
              <mxPoint x="729" y="1375" />
              <mxPoint x="1387" y="1375" />
              <mxPoint x="1387" y="1191" />
            </Array>
          </mxGeometry>
        </mxCell>
        <mxCell id="RiG3D5k4U8Nx224Txmzv-33" value="1..* -teachers" style="edgeLabel;resizable=0;html=1;align=left;verticalAlign=bottom;labelBackgroundColor=none;" connectable="0" vertex="1" parent="RiG3D5k4U8Nx224Txmzv-32">
          <mxGeometry x="-1" relative="1" as="geometry">
            <mxPoint x="2" y="21" as="offset" />
          </mxGeometry>
        </mxCell>
        <mxCell id="RiG3D5k4U8Nx224Txmzv-37" value="1..* -teams" style="text;strokeColor=none;fillColor=none;align=left;verticalAlign=top;spacingLeft=4;spacingRight=4;overflow=hidden;rotatable=0;points=[[0,0.5],[1,0.5]];portConstraint=eastwest;whiteSpace=wrap;html=1;" vertex="1" parent="1">
          <mxGeometry x="1236" y="1446" width="100" height="26" as="geometry" />
        </mxCell>
        <mxCell id="RiG3D5k4U8Nx224Txmzv-38" value="1 -activity" style="text;strokeColor=none;fillColor=none;align=left;verticalAlign=top;spacingLeft=4;spacingRight=4;overflow=hidden;rotatable=0;points=[[0,0.5],[1,0.5]];portConstraint=eastwest;whiteSpace=wrap;html=1;" vertex="1" parent="1">
          <mxGeometry x="1520" y="974" width="100" height="26" as="geometry" />
        </mxCell>
        <mxCell id="RiG3D5k4U8Nx224Txmzv-40" value="" style="endArrow=none;html=1;edgeStyle=orthogonalEdgeStyle;rounded=0;entryX=0;entryY=0.5;entryDx=0;entryDy=0;exitX=0.5;exitY=1.184;exitDx=0;exitDy=0;exitPerimeter=0;" edge="1" parent="1" source="4EB8Psn6O-BigjPQr9G0-92" target="4EB8Psn6O-BigjPQr9G0-122">
          <mxGeometry relative="1" as="geometry">
            <mxPoint x="847" y="1199" as="sourcePoint" />
            <mxPoint x="1007" y="1199" as="targetPoint" />
            <Array as="points">
              <mxPoint x="460" y="1631" />
            </Array>
          </mxGeometry>
        </mxCell>
        <mxCell id="RiG3D5k4U8Nx224Txmzv-41" value="1..* -students" style="edgeLabel;resizable=0;html=1;align=left;verticalAlign=bottom;labelBackgroundColor=none;" connectable="0" vertex="1" parent="RiG3D5k4U8Nx224Txmzv-40">
          <mxGeometry x="-1" relative="1" as="geometry">
            <mxPoint x="6" y="28" as="offset" />
          </mxGeometry>
        </mxCell>
        <mxCell id="RiG3D5k4U8Nx224Txmzv-42" value="1..* -teams" style="edgeLabel;resizable=0;html=1;align=right;verticalAlign=bottom;labelBackgroundColor=none;" connectable="0" vertex="1" parent="RiG3D5k4U8Nx224Txmzv-40">
          <mxGeometry x="1" relative="1" as="geometry">
            <mxPoint x="-7" y="-10" as="offset" />
          </mxGeometry>
        </mxCell>
        <mxCell id="RiG3D5k4U8Nx224Txmzv-47" value="" style="endArrow=none;html=1;rounded=0;exitX=1;exitY=0.5;exitDx=0;exitDy=0;entryX=0;entryY=0.5;entryDx=0;entryDy=0;" edge="1" parent="1" source="4EB8Psn6O-BigjPQr9G0-96" target="4EB8Psn6O-BigjPQr9G0-63">
          <mxGeometry relative="1" as="geometry">
            <mxPoint x="732" y="1327" as="sourcePoint" />
            <mxPoint x="1071" y="1634" as="targetPoint" />
          </mxGeometry>
        </mxCell>
        <mxCell id="RiG3D5k4U8Nx224Txmzv-48" value="* -teachers" style="edgeLabel;resizable=0;html=1;align=left;verticalAlign=bottom;labelBackgroundColor=none;" connectable="0" vertex="1" parent="RiG3D5k4U8Nx224Txmzv-47">
          <mxGeometry x="-1" relative="1" as="geometry" />
        </mxCell>
        <mxCell id="RiG3D5k4U8Nx224Txmzv-49" value="1..* -teams" style="edgeLabel;resizable=0;html=1;align=right;verticalAlign=bottom;labelBackgroundColor=none;" connectable="0" vertex="1" parent="RiG3D5k4U8Nx224Txmzv-47">
          <mxGeometry x="1" relative="1" as="geometry">
            <mxPoint x="-31" y="1" as="offset" />
          </mxGeometry>
        </mxCell>
      </root>
    </mxGraphModel>
  </diagram>
  <diagram id="ybFO3-LGAafavhGRaXRY" name="第 3 页">
    <mxGraphModel grid="1" page="1" gridSize="10" guides="1" tooltips="1" connect="1" arrows="1" fold="1" pageScale="1" pageWidth="827" pageHeight="1169" math="0" shadow="0">
      <root>
        <mxCell id="0" />
        <mxCell id="1" parent="0" />
      </root>
    </mxGraphModel>
  </diagram>
</mxfile>
